<svg height="500" viewBox="-0.7000 -705.18 811.4792 705.68" width="574" xmlns="http://www.w3.org/2000/svg" xmlns:xlink="http://www.w3.org/1999/xlink"><style>svg {
  color-scheme: light dark;
}
{
  .canvas g, .title g, .axisbar g, .ticktext g, .tickglyph g, .ticklines g, .legendContent g text {
    fill: rgb(5%, 5%, 5%);
  }
  .ticklines g, .tickglyph g, .legendBorder g {
    stroke: rgb(5%, 5%, 5%);
  }
  .legendBorder g {
    fill: rgb(94%, 94%, 94%);
  }
}
@media (prefers-color-scheme:dark) {
  .canvas g, .title g, .axisbar g, .ticktext g, .tickglyph g, .ticklines g, .legendContent g text {
    fill: rgb(94%, 94%, 94%);
  }
  .ticklines g, .tickglyph g, .legendBorder g {
    stroke: rgb(94%, 94%, 94%);
  }
  .legendBorder g {
    fill: rgb(5%, 5%, 5%);
  }
}</style><g class="chart"><g class="edges"><g fill="rgb(0%, 0%, 0%)" fill-opacity="0" stroke="rgb(-51%, 30%, 37%)" stroke-opacity="1.0" stroke-width="1.0"><path d="M 258.94,-71.02 C 263.0400,-90.4300 272.6,-120.35 293.95,-135.1000 C 298.24,-138.07 312.9,-134.05 317.37,-136.74 C 338.41,-149.36 368.89,-206.79 376.0,-230.26 C 378.01,-236.9000 376.6,-285.82 377.72,-292.67 C 380.29,-308.3400 385.69,-325.52 390.16,-338.11"/></g><g fill="rgb(0%, 0%, 0%)" fill-opacity="0" stroke="rgb(-51%, 30%, 37%)" stroke-opacity="1.0" stroke-width="1.0"><path d="M 258.94,-71.02 C 263.0400,-90.4300 272.6,-120.35 293.95,-135.1000 C 298.24,-138.07 312.75,-134.31 317.37,-136.74 C 347.11,-152.37 342.57,-170.39 364.46,-195.88 C 381.7,-215.9500 402.39,-238.0800 416.7800,-253.1800"/></g><g fill="rgb(0%, 0%, 0%)" fill-opacity="0" stroke="rgb(-51%, 30%, 37%)" stroke-opacity="1.0" stroke-width="1.0"><path d="M 282.31,-670.06 C 288.61,-665.2200 294.4400,-659.3200 298.17,-652.3700 C 300.02,-648.94 299.56,-621.21 299.78,-617.32 C 299.98,-613.89 307.09,-497.2300 308.18,-493.9700 C 323.89,-446.76 359.73,-399.8600 380.84,-374.91"/></g><g fill="rgb(0%, 0%, 0%)" fill-opacity="0" stroke="rgb(-51%, 30%, 37%)" stroke-opacity="1.0" stroke-width="1.0"><path d="M 219.98,-670.5800 C 213.47,-665.6600 207.46,-659.6 203.77,-652.3700 C 199.49,-643.98 200.68,-618.87 203.77,-609.9700 C 206.31,-602.7 210.84,-595.76 215.66,-589.83"/></g><g fill="rgb(0%, 0%, 0%)" fill-opacity="0" stroke="rgb(-51%, 30%, 37%)" stroke-opacity="1.0" stroke-width="1.0"><path d="M 282.31,-670.06 C 288.61,-665.2200 294.4400,-659.3200 298.17,-652.3700 C 300.02,-648.94 299.44,-621.2 299.78,-617.32 C 302.85,-582.64 290.36,-568.41 309.98,-539.66 C 311.47,-537.47 313.22,-535.47 315.15,-533.62"/></g><g fill="rgb(0%, 0%, 0%)" fill-opacity="0" stroke="rgb(-51%, 30%, 37%)" stroke-opacity="1.0" stroke-width="1.0"><path d="M 462.63,-454.74 C 487.19,-429.3800 531.4000,-383.7200 556.06,-358.2600"/></g><g fill="rgb(0%, 0%, 0%)" fill-opacity="0" stroke="rgb(-51%, 30%, 37%)" stroke-opacity="1.0" stroke-width="1.0"><path d="M 437.41,-454.5200 C 428.4600,-432.7100 413.68,-396.65 404.75,-374.88"/></g><g fill="rgb(0%, 0%, 0%)" fill-opacity="0" stroke="rgb(-51%, 30%, 37%)" stroke-opacity="1.0" stroke-width="1.0"><path d="M 450.21,-491.47 C 455.0100,-505.6900 463.34,-525.06 476.0900,-538.21 C 501.55,-564.46 514.18,-565.47 549.22,-575.92 C 555.99,-577.9400 558.5800,-574.7 565.04,-577.5600 C 577.45,-583.0700 588.86,-593.06 597.4,-602.0100"/></g><g fill="rgb(0%, 0%, 0%)" fill-opacity="0" stroke="rgb(-51%, 30%, 37%)" stroke-opacity="1.0" stroke-width="1.0"><path d="M 465.5000,-454.6100 C 474.43,-445.3800 484.0800,-433.47 489.49,-420.7500 C 501.5600,-392.3900 502.2100,-355.91 501.26,-334.4000"/></g><g fill="rgb(0%, 0%, 0%)" fill-opacity="0" stroke="rgb(-51%, 30%, 37%)" stroke-opacity="1.0" stroke-width="1.0"><path d="M 436.67,-491.24 C 424.98,-515.09 401.59,-556.7900 370.38,-582.06 C 358.28,-591.86 324.11,-605.5 295.4100,-615.91"/></g><g fill="rgb(0%, 0%, 0%)" fill-opacity="0" stroke="rgb(-51%, 30%, 37%)" stroke-opacity="1.0" stroke-width="1.0"><path d="M 450.21,-491.47 C 455.0100,-505.6900 463.34,-525.06 476.0900,-538.21 C 501.55,-564.46 514.18,-565.47 549.22,-575.92 C 552.6100,-576.93 562.48,-575.13 565.04,-577.5600 C 567.51,-579.92 573.03,-621.48 576.12,-646.28"/></g><g fill="rgb(0%, 0%, 0%)" fill-opacity="0" stroke="rgb(-51%, 30%, 37%)" stroke-opacity="1.0" stroke-width="1.0"><path d="M 435.92,-491.2600 C 428.2,-505.2500 415.92,-524.15 400.58,-536.37 C 390.93,-544.05 378.55,-549.6300 367.51,-553.5"/></g><g fill="rgb(0%, 0%, 0%)" fill-opacity="0" stroke="rgb(-51%, 30%, 37%)" stroke-opacity="1.0" stroke-width="1.0"><path d="M 448.08,-491.3000 C 453.1,-525.74 460.26,-601.85 437.18,-659.72 C 436.56,-661.2800 435.78,-662.8100 434.89,-664.29"/></g><g fill="rgb(0%, 0%, 0%)" fill-opacity="0" stroke="rgb(-51%, 30%, 37%)" stroke-opacity="1.0" stroke-width="1.0"><path d="M 444.87,-491.0100 C 445.16,-519.13 447.5400,-574.86 460.64,-619.96 C 465.23,-635.78 473.6500,-652.43 480.57,-664.6300"/></g><g fill="rgb(0%, 0%, 0%)" fill-opacity="0" stroke="rgb(-51%, 30%, 37%)" stroke-opacity="1.0" stroke-width="1.0"><path d="M 484.92,-472.9 C 505.84,-474.8900 530.55,-480.7000 547.49,-495.81 C 549.74,-497.81 548.13,-499.65 549.71,-502.21 C 557.54,-514.89 568.91,-526.94 578.95,-536.3"/></g><g fill="rgb(0%, 0%, 0%)" fill-opacity="0" stroke="rgb(-51%, 30%, 37%)" stroke-opacity="1.0" stroke-width="1.0"><path d="M 438.1300,-454.9 C 434.7200,-444.97 430.93,-432.36 429.0900,-420.7500 C 428.3500,-416.0700 429.45,-339.6000 427.42,-335.31 C 415.01,-308.99 389.88,-319.11 377.72,-292.67 C 375.76,-288.39 375.87,-254.6000 377.72,-250.2700 C 391.54,-218.04 420.64,-227.92 434.8600,-195.88 C 437.7800,-189.3 435.48,-138.26 436.5,-131.14 C 438.59,-116.59 442.94,-100.54 446.61,-88.545"/></g><g fill="rgb(0%, 0%, 0%)" fill-opacity="0" stroke="rgb(-51%, 30%, 37%)" stroke-opacity="1.0" stroke-width="1.0"><path d="M 484.92,-472.9 C 505.84,-474.8900 530.55,-480.7000 547.49,-495.81 C 549.74,-497.81 547.26,-500.47 549.71,-502.21 C 577.74,-522.16 593.14,-507.6 627.11,-502.21 C 628.61,-501.97 630.12,-501.68 631.65,-501.3400"/></g><g fill="rgb(0%, 0%, 0%)" fill-opacity="0" stroke="rgb(-51%, 30%, 37%)" stroke-opacity="1.0" stroke-width="1.0"><path d="M 405.5,-491.3600 C 401.68,-493.1300 397.81,-494.9400 394.0,-496.7100"/></g><g fill="rgb(0%, 0%, 0%)" fill-opacity="0" stroke="rgb(-51%, 30%, 37%)" stroke-opacity="1.0" stroke-width="1.0"><path d="M 405.07,-471.5100 C 323.31,-468.4900 144.24,-461.8300 142.71,-461.2800 C 137.36,-459.36 132.15,-456.3200 127.46,-452.95"/></g><g fill="rgb(0%, 0%, 0%)" fill-opacity="0" stroke="rgb(-51%, 30%, 37%)" stroke-opacity="1.0" stroke-width="1.0"><path d="M 436.49,-491.3200 C 421.7900,-523.14 391.73,-588.2100 377.0,-620.09"/></g><g fill="rgb(0%, 0%, 0%)" fill-opacity="0" stroke="rgb(-51%, 30%, 37%)" stroke-opacity="1.0" stroke-width="1.0"><path d="M 546.7,-342.3900 C 513.49,-345.52 457.69,-350.8000 424.47,-353.9400"/></g><g fill="rgb(0%, 0%, 0%)" fill-opacity="0" stroke="rgb(-51%, 30%, 37%)" stroke-opacity="1.0" stroke-width="1.0"><path d="M 731.97,-410.7100 C 700.16,-415.21 647.7,-417.2800 614.37,-390.53 C 612.54,-389.0600 614.51,-387.0100 612.71,-385.5100 C 584.58,-362.21 475.86,-357.5600 424.45,-356.6900"/></g><g fill="rgb(0%, 0%, 0%)" fill-opacity="0" stroke="rgb(-51%, 30%, 37%)" stroke-opacity="1.0" stroke-width="1.0"><path d="M 390.16,-338.11 C 385.69,-325.52 380.29,-308.3400 377.72,-292.67 C 377.16,-289.2500 377.94,-233.1300 376.0,-230.26 C 343.66,-182.63 308.39,-205.0400 256.97,-179.14 C 232.54,-166.83 205.81,-151.13 186.12,-139.12"/></g><g fill="rgb(0%, 0%, 0%)" fill-opacity="0" stroke="rgb(-51%, 30%, 37%)" stroke-opacity="1.0" stroke-width="1.0"><path d="M 410.28,-338.1800 C 421.75,-323.69 439.82,-304.3900 460.66,-295.0100 C 466.85,-292.2200 485.58,-296.59 491.12,-292.67 C 509.11,-279.9600 517.28,-254.9800 520.9,-237.72"/></g><g fill="rgb(0%, 0%, 0%)" fill-opacity="0" stroke="rgb(-51%, 30%, 37%)" stroke-opacity="1.0" stroke-width="1.0"><path d="M 624.23,-465.1700 C 656.32,-450.9800 702.71,-430.4600 731.9,-417.54"/></g><g fill="rgb(0%, 0%, 0%)" fill-opacity="0" stroke="rgb(-51%, 30%, 37%)" stroke-opacity="1.0" stroke-width="1.0"><path d="M 567.49,-462.67 C 556.43,-452.69 542.79,-439.9600 531.31,-427.9100 C 511.43,-407.0500 514.04,-393.4500 489.49,-378.3500 C 469.72,-366.2000 443.7300,-360.8100 424.38,-358.42"/></g><g fill="rgb(0%, 0%, 0%)" fill-opacity="0" stroke="rgb(-51%, 30%, 37%)" stroke-opacity="1.0" stroke-width="1.0"><path d="M 611.3,-499.36 C 629.51,-514.01 652.03,-532.29 652.62,-533.52 C 660.69,-550.55 659.36,-558.32 652.62,-575.92 C 648.84,-585.81 641.73,-594.88 634.55,-602.21"/></g><g fill="rgb(0%, 0%, 0%)" fill-opacity="0" stroke="rgb(-51%, 30%, 37%)" stroke-opacity="1.0" stroke-width="1.0"><path d="M 562.91,-462.5200 C 551.77,-453.2600 539.42,-441.2000 531.31,-427.9100 C 513.14,-398.1600 505.1700,-357.61 501.9000,-334.4400"/></g><g fill="rgb(0%, 0%, 0%)" fill-opacity="0" stroke="rgb(-51%, 30%, 37%)" stroke-opacity="1.0" stroke-width="1.0"><path d="M 552.45,-485.6400 C 525.31,-489.16 490.4,-493.73 476.0900,-495.81 C 450.05,-499.6000 420.9300,-504.21 397.71,-507.9900"/></g><g fill="rgb(0%, 0%, 0%)" fill-opacity="0" stroke="rgb(-51%, 30%, 37%)" stroke-opacity="1.0" stroke-width="1.0"><path d="M 567.03,-462.6000 C 555.96,-452.7100 542.47,-440.08 531.31,-427.9100 C 514.06,-409.1100 473.35,-359.5400 460.66,-337.4100 C 451.89,-322.1200 444.73,-303.3400 440.1200,-289.74"/></g><g fill="rgb(0%, 0%, 0%)" fill-opacity="0" stroke="rgb(-51%, 30%, 37%)" stroke-opacity="1.0" stroke-width="1.0"><path d="M 600.74,-462.5700 C 614.57,-441.88 636.88,-408.5 650.73,-387.8000"/></g><g fill="rgb(0%, 0%, 0%)" fill-opacity="0" stroke="rgb(-51%, 30%, 37%)" stroke-opacity="1.0" stroke-width="1.0"><path d="M 685.84,-214.4100 C 679.96,-220.02 674.27,-226.64 670.45,-233.8100 C 661.24,-251.1100 673.38,-260.69 662.89,-277.24 C 648.23,-300.36 621.63,-317.3700 601.33,-327.77"/></g><g fill="rgb(0%, 0%, 0%)" fill-opacity="0" stroke="rgb(-51%, 30%, 37%)" stroke-opacity="1.0" stroke-width="1.0"><path d="M 682.48,-204.84 C 660.57,-212.1200 629.16,-223.1600 602.49,-234.8400 C 551.4,-257.21 544.76,-277.38 491.12,-292.67 C 478.0600,-296.39 473.04,-289.43 460.66,-295.0100 C 439.82,-304.3900 421.75,-323.69 410.28,-338.1800"/></g><g fill="rgb(0%, 0%, 0%)" fill-opacity="0" stroke="rgb(-51%, 30%, 37%)" stroke-opacity="1.0" stroke-width="1.0"><path d="M 682.4,-183.8200 C 666.07,-176.4900 645.14,-167.09 627.51,-159.17"/></g><g fill="rgb(0%, 0%, 0%)" fill-opacity="0" stroke="rgb(-51%, 30%, 37%)" stroke-opacity="1.0" stroke-width="1.0"><path d="M 682.26,-203.3500 C 659.94,-209.86 628.09,-220.5700 602.49,-234.8400 C 570.71,-252.5500 538.5700,-279.91 518.9200,-297.93"/></g><g fill="rgb(0%, 0%, 0%)" fill-opacity="0" stroke="rgb(-51%, 30%, 37%)" stroke-opacity="1.0" stroke-width="1.0"><path d="M 589.27,-161.49 C 585.68,-182.2500 577.54,-216.3100 560.3400,-240.4700 C 538.0,-271.86 527.17,-279.05 491.12,-292.67 C 478.42,-297.47 473.04,-289.43 460.66,-295.0100 C 439.82,-304.3900 421.75,-323.69 410.28,-338.1800"/></g><g fill="rgb(0%, 0%, 0%)" fill-opacity="0" stroke="rgb(-51%, 30%, 37%)" stroke-opacity="1.0" stroke-width="1.0"><path d="M 555.8200,-145.8500 C 538.1,-147.18 516.96,-148.78 500.0600,-150.0500"/></g><g fill="rgb(0%, 0%, 0%)" fill-opacity="0" stroke="rgb(-51%, 30%, 37%)" stroke-opacity="1.0" stroke-width="1.0"><path d="M 575.3,-161.57 C 564.5800,-173.54 550.6700,-189.08 539.99,-201.01"/></g><g fill="rgb(0%, 0%, 0%)" fill-opacity="0" stroke="rgb(-51%, 30%, 37%)" stroke-opacity="1.0" stroke-width="1.0"><path d="M 556.23,-156.7800 C 534.6400,-166.2100 507.4,-180.2600 486.94,-198.0700 C 468.86,-213.81 453.63,-236.95 444.31,-253.0300"/></g><g fill="rgb(0%, 0%, 0%)" fill-opacity="0" stroke="rgb(-51%, 30%, 37%)" stroke-opacity="1.0" stroke-width="1.0"><path d="M 597.4,-602.0100 C 588.86,-593.06 577.45,-583.0700 565.04,-577.5600 C 561.81,-576.13 551.6100,-578.52 549.22,-575.92 C 543.19,-569.3700 551.6,-503.71 547.49,-495.81 C 532.28,-466.51 515.6300,-469.33 487.6700,-451.7700 C 462.72,-436.1100 449.65,-441.86 429.0900,-420.7500 C 416.5000,-407.8200 407.94,-388.93 402.9,-374.9800"/></g><g fill="rgb(0%, 0%, 0%)" fill-opacity="0" stroke="rgb(-51%, 30%, 37%)" stroke-opacity="1.0" stroke-width="1.0"><path d="M 634.15,-602.05 C 641.29,-594.7 648.47,-585.66 652.62,-575.92 C 661.7,-554.65 661.98,-527.61 660.87,-510.0200"/></g><g fill="rgb(0%, 0%, 0%)" fill-opacity="0" stroke="rgb(-51%, 30%, 37%)" stroke-opacity="1.0" stroke-width="1.0"><path d="M 597.4,-602.0100 C 588.86,-593.06 577.45,-583.0700 565.04,-577.5600 C 558.5800,-574.7 556.14,-577.3500 549.22,-575.92 C 496.12,-565.0000 436.89,-545.4300 397.83,-531.4500"/></g><g fill="rgb(0%, 0%, 0%)" fill-opacity="0" stroke="rgb(-51%, 30%, 37%)" stroke-opacity="1.0" stroke-width="1.0"><path d="M 578.75,-622.93 C 541.53,-625.6900 480.9000,-630.1800 434.2900,-633.64"/></g><g fill="rgb(0%, 0%, 0%)" fill-opacity="0" stroke="rgb(-51%, 30%, 37%)" stroke-opacity="1.0" stroke-width="1.0"><path d="M 534.05,-392.79 C 520.13,-387.92 504.19,-382.61 489.49,-378.3500 C 467.83,-372.08 442.9300,-366.2700 424.46,-362.2200"/></g><g fill="rgb(0%, 0%, 0%)" fill-opacity="0" stroke="rgb(-51%, 30%, 37%)" stroke-opacity="1.0" stroke-width="1.0"><path d="M 584.82,-388.48 C 590.7,-380.1100 597.77,-370.0600 604.12,-361.01 C 630.26,-323.7900 645.52,-319.2700 662.89,-277.24 C 670.38,-259.13 661.24,-251.1100 670.45,-233.8100 C 674.27,-226.64 679.96,-220.02 685.84,-214.4100"/></g><g fill="rgb(0%, 0%, 0%)" fill-opacity="0" stroke="rgb(-51%, 30%, 37%)" stroke-opacity="1.0" stroke-width="1.0"><path d="M 557.98,-388.6000 C 552.54,-380.5900 546.87,-370.78 543.72,-361.01 C 534.68,-333.03 550.96,-321.9 539.06,-295.0100 C 525.49,-264.35 502.3600,-270.24 486.94,-240.4700 C 475.39,-218.18 471.5500,-189.07 470.29,-170.53"/></g><g fill="rgb(0%, 0%, 0%)" fill-opacity="0" stroke="rgb(-51%, 30%, 37%)" stroke-opacity="1.0" stroke-width="1.0"><path d="M 557.98,-388.6000 C 552.54,-380.5900 546.87,-370.78 543.72,-361.01 C 539.2,-347.0200 545.39,-308.28 539.06,-295.0100 C 526.6300,-268.96 462.4300,-219.8300 425.64,-193.1100"/></g><g fill="rgb(0%, 0%, 0%)" fill-opacity="0" stroke="rgb(-51%, 30%, 37%)" stroke-opacity="1.0" stroke-width="1.0"><path d="M 560.15,-424.9 C 545.69,-445.43 519.23,-478.06 487.6700,-494.1700 C 483.04,-496.5400 479.93,-492.3100 476.0900,-495.81 C 420.75,-546.24 471.4400,-593.14 437.18,-659.72 C 436.41,-661.22 435.52,-662.7000 434.56,-664.1400"/></g><g fill="rgb(0%, 0%, 0%)" fill-opacity="0" stroke="rgb(-51%, 30%, 37%)" stroke-opacity="1.0" stroke-width="1.0"><path d="M 534.31,-413.7300 C 491.17,-422.28 423.7200,-437.3600 402.27,-451.7700 C 385.3300,-463.16 371.97,-482.5700 363.71,-496.9200"/></g><g fill="rgb(0%, 0%, 0%)" fill-opacity="0" stroke="rgb(-51%, 30%, 37%)" stroke-opacity="1.0" stroke-width="1.0"><path d="M 557.98,-388.6000 C 552.54,-380.5900 546.87,-370.78 543.72,-361.01 C 534.68,-333.03 543.04,-324.1500 539.06,-295.0100 C 536.3500,-275.2 531.57,-252.7900 528.05,-237.5200"/></g><g fill="rgb(0%, 0%, 0%)" fill-opacity="0" stroke="rgb(-51%, 30%, 37%)" stroke-opacity="1.0" stroke-width="1.0"><path d="M 560.15,-424.9 C 545.69,-445.43 519.23,-478.06 487.6700,-494.1700 C 483.04,-496.5400 480.57,-493.1700 476.0900,-495.81 C 425.57,-525.59 390.99,-589.18 376.35,-620.4300"/></g><g fill="rgb(0%, 0%, 0%)" fill-opacity="0" stroke="rgb(-51%, 30%, 37%)" stroke-opacity="1.0" stroke-width="1.0"><path d="M 584.75,-388.45 C 596.46,-371.78 612.3,-349.52 614.37,-348.13 C 646.47,-326.5 689.9,-317.3600 722.1,-313.5100"/></g><g fill="rgb(0%, 0%, 0%)" fill-opacity="0" stroke="rgb(-51%, 30%, 37%)" stroke-opacity="1.0" stroke-width="1.0"><path d="M 536.02,-327.73 C 539.55,-328.86 543.08,-329.9800 546.5,-331.07"/></g><g fill="rgb(0%, 0%, 0%)" fill-opacity="0" stroke="rgb(-51%, 30%, 37%)" stroke-opacity="1.0" stroke-width="1.0"><path d="M 463.38,-330.53 C 450.59,-335.55 436.4500,-341.1 424.54,-345.78"/></g><g fill="rgb(0%, 0%, 0%)" fill-opacity="0" stroke="rgb(-51%, 30%, 37%)" stroke-opacity="1.0" stroke-width="1.0"><path d="M 498.76,-297.75 C 497.6400,-284.38 495.43,-265.97 491.12,-250.2700 C 489.87,-245.7000 488.33,-245.0000 486.94,-240.4700 C 479.6500,-216.78 474.77,-188.52 472.11,-170.5"/></g><g fill="rgb(0%, 0%, 0%)" fill-opacity="0" stroke="rgb(-51%, 30%, 37%)" stroke-opacity="1.0" stroke-width="1.0"><path d="M 472.87,-297.75 C 469.06,-295.15 465.1500,-292.4800 461.3500,-289.8800"/></g><g fill="rgb(0%, 0%, 0%)" fill-opacity="0" stroke="rgb(-51%, 30%, 37%)" stroke-opacity="1.0" stroke-width="1.0"><path d="M 261.5700,-613.0400 C 274.49,-589.99 295.9100,-548.6000 306.43,-510.3100 C 308.37,-503.27 305.74,-500.8500 308.18,-493.9700 C 324.79,-447.06 360.3,-400.05 381.11,-375.0000"/></g><g fill="rgb(0%, 0%, 0%)" fill-opacity="0" stroke="rgb(-51%, 30%, 37%)" stroke-opacity="1.0" stroke-width="1.0"><path d="M 259.4,-612.7700 C 269.26,-592.81 287.1800,-560.94 309.98,-539.66 C 312.3,-537.49 314.84,-535.45 317.5,-533.55"/></g><g fill="rgb(0%, 0%, 0%)" fill-opacity="0" stroke="rgb(-51%, 30%, 37%)" stroke-opacity="1.0" stroke-width="1.0"><path d="M 470.29,-170.53 C 471.5500,-189.07 475.39,-218.18 486.94,-240.4700 C 502.3600,-270.24 517.15,-269.62 539.06,-295.0100 C 546.4,-303.51 554.1100,-313.33 560.4200,-321.6"/></g><g fill="rgb(0%, 0%, 0%)" fill-opacity="0" stroke="rgb(-51%, 30%, 37%)" stroke-opacity="1.0" stroke-width="1.0"><path d="M 455.99,-170.5800 C 449.7800,-178.5500 442.1900,-187.89 434.8600,-195.88 C 411.1500,-221.7100 391.54,-218.04 377.72,-250.2700 C 375.87,-254.6000 377.03,-288.01 377.72,-292.67 C 380.07,-308.3700 385.4900,-325.55 390.02,-338.13"/></g><g fill="rgb(0%, 0%, 0%)" fill-opacity="0" stroke="rgb(-51%, 30%, 37%)" stroke-opacity="1.0" stroke-width="1.0"><path d="M 576.12,-646.28 C 573.03,-621.48 567.51,-579.92 565.04,-577.5600 C 562.48,-575.13 551.6100,-578.52 549.22,-575.92 C 543.19,-569.3700 551.6,-503.71 547.49,-495.81 C 532.28,-466.51 515.6300,-469.33 487.6700,-451.7700 C 462.72,-436.1100 449.65,-441.86 429.0900,-420.7500 C 416.5000,-407.8200 407.94,-388.93 402.9,-374.9800"/></g><g fill="rgb(0%, 0%, 0%)" fill-opacity="0" stroke="rgb(-51%, 30%, 37%)" stroke-opacity="1.0" stroke-width="1.0"><path d="M 539.06,-654.1500 C 515.22,-646.8 484.8200,-635.47 460.64,-619.96 C 422.9,-595.77 387.64,-556.42 368.74,-533.44"/></g><g fill="rgb(0%, 0%, 0%)" fill-opacity="0" stroke="rgb(-51%, 30%, 37%)" stroke-opacity="1.0" stroke-width="1.0"><path d="M 617.69,-656.64 C 628.64,-653.22 640.08,-648.39 649.41,-641.61 C 687.85,-613.69 716.23,-564.02 729.56,-537.31"/></g><g fill="rgb(0%, 0%, 0%)" fill-opacity="0" stroke="rgb(-51%, 30%, 37%)" stroke-opacity="1.0" stroke-width="1.0"><path d="M 220.13,-437.6900 C 246.25,-435.0 281.5400,-429.3 310.54,-417.25 C 335.31,-406.94 360.02,-388.64 376.68,-374.81"/></g><g fill="rgb(0%, 0%, 0%)" fill-opacity="0" stroke="rgb(-51%, 30%, 37%)" stroke-opacity="1.0" stroke-width="1.0"><path d="M 201.41,-458.32 C 229.29,-487.32 280.6600,-547.14 298.17,-609.9700 C 298.9200,-612.63 297.99,-657.61 299.78,-659.72 C 321.54,-685.26 362.6,-687.67 389.94,-685.96"/></g><g fill="rgb(0%, 0%, 0%)" fill-opacity="0" stroke="rgb(-51%, 30%, 37%)" stroke-opacity="1.0" stroke-width="1.0"><path d="M 190.07,-458.33 C 199.91,-483.4100 217.49,-528.25 227.3,-553.25"/></g><g fill="rgb(0%, 0%, 0%)" fill-opacity="0" stroke="rgb(-51%, 30%, 37%)" stroke-opacity="1.0" stroke-width="1.0"><path d="M 220.31,-440.82 C 247.34,-439.6800 283.6600,-434.5500 310.54,-417.25 C 347.72,-393.3 338.26,-368.91 367.02,-335.31 C 381.17,-318.78 399.14,-301.93 412.97,-289.7"/></g><g fill="rgb(0%, 0%, 0%)" fill-opacity="0" stroke="rgb(-51%, 30%, 37%)" stroke-opacity="1.0" stroke-width="1.0"><path d="M 334.53,-132.1 C 347.78,-159.59 371.64,-210.6 376.0,-230.26 C 379.0,-243.8100 375.49,-278.9800 377.72,-292.67 C 380.29,-308.3400 385.69,-325.52 390.16,-338.11"/></g><g fill="rgb(0%, 0%, 0%)" fill-opacity="0" stroke="rgb(-51%, 30%, 37%)" stroke-opacity="1.0" stroke-width="1.0"><path d="M 354.54,-116.38 C 389.66,-119.46 450.6900,-125.0700 502.9,-131.14 C 520.3800,-133.1600 539.75,-135.7400 555.93,-137.9900"/></g><g fill="rgb(0%, 0%, 0%)" fill-opacity="0" stroke="rgb(-51%, 30%, 37%)" stroke-opacity="1.0" stroke-width="1.0"><path d="M 354.45,-121.59 C 379.0,-128.1400 414.18,-137.52 439.21,-144.2"/></g><g fill="rgb(0%, 0%, 0%)" fill-opacity="0" stroke="rgb(-51%, 30%, 37%)" stroke-opacity="1.0" stroke-width="1.0"><path d="M 296.78,-124.22 C 286.4,-127.8 274.5600,-131.74 263.68,-135.0 C 260.73,-135.8800 259.49,-134.9700 256.97,-136.74 C 215.64,-165.6900 210.59,-183.12 192.6,-230.26 C 190.53,-235.67 192.09,-237.5100 190.96,-243.1900 C 185.34,-271.25 177.68,-276.9000 173.84,-305.26 C 171.32,-323.9300 172.92,-328.84 173.84,-347.66 C 175.1,-373.4200 178.33,-403.09 180.57,-421.7100"/></g><g fill="rgb(0%, 0%, 0%)" fill-opacity="0" stroke="rgb(-51%, 30%, 37%)" stroke-opacity="1.0" stroke-width="1.0"><path d="M 332.49,-132.3400 C 339.3,-149.54 350.7,-175.5300 364.46,-195.88 C 378.88,-217.2100 399.2200,-238.4600 414.2500,-252.97"/></g><g fill="rgb(0%, 0%, 0%)" fill-opacity="0" stroke="rgb(-51%, 30%, 37%)" stroke-opacity="1.0" stroke-width="1.0"><path d="M 303.72,-486.4800 C 331.27,-483.8500 373.96,-479.7600 405.2100,-476.78"/></g><g fill="rgb(0%, 0%, 0%)" fill-opacity="0" stroke="rgb(-51%, 30%, 37%)" stroke-opacity="1.0" stroke-width="1.0"><path d="M 293.06,-470.67 C 316.17,-445.3400 357.5,-400.04 380.54,-374.7900"/></g><g fill="rgb(0%, 0%, 0%)" fill-opacity="0" stroke="rgb(-51%, 30%, 37%)" stroke-opacity="1.0" stroke-width="1.0"><path d="M 303.44,-489.5200 C 328.66,-490.0600 367.2,-491.2800 400.58,-493.9700 C 401.33,-494.03 401.51,-494.1300 402.27,-494.1700 C 440.16,-496.4800 449.8,-496.6400 487.6700,-494.1700 C 509.3200,-492.7700 533.4200,-489.67 552.62,-486.84"/></g><g fill="rgb(0%, 0%, 0%)" fill-opacity="0" stroke="rgb(-51%, 30%, 37%)" stroke-opacity="1.0" stroke-width="1.0"><path d="M 303.52,-486.4200 C 329.13,-484.77 368.23,-484.51 400.58,-493.9700 C 437.91,-504.8800 442.01,-519.46 476.0900,-538.21 C 508.1300,-555.8400 514.18,-565.47 549.22,-575.92 C 555.99,-577.9400 558.5800,-574.7 565.04,-577.5600 C 577.45,-583.0700 588.86,-593.06 597.4,-602.0100"/></g><g fill="rgb(0%, 0%, 0%)" fill-opacity="0" stroke="rgb(-51%, 30%, 37%)" stroke-opacity="1.0" stroke-width="1.0"><path d="M 303.71,-480.73 C 329.19,-473.0100 368.22,-461.34 402.27,-451.7700 C 447.4800,-439.08 499.7200,-425.3500 534.17,-416.43"/></g><g fill="rgb(0%, 0%, 0%)" fill-opacity="0" stroke="rgb(-51%, 30%, 37%)" stroke-opacity="1.0" stroke-width="1.0"><path d="M 275.4400,-507.2600 C 274.24,-528.0800 271.35,-563.13 264.6,-592.55 C 263.0400,-599.34 260.6800,-606.59 258.35,-612.95"/></g><g fill="rgb(0%, 0%, 0%)" fill-opacity="0" stroke="rgb(-51%, 30%, 37%)" stroke-opacity="1.0" stroke-width="1.0"><path d="M 283.69,-507.58 C 288.91,-517.94 296.97,-530.03 308.18,-536.37 C 320.23,-543.18 357.58,-534.39 370.38,-539.66 C 420.0500,-560.07 414.71,-592.15 460.64,-619.96 C 485.12,-634.79 515.37,-646.1 539.06,-653.6200"/></g><g fill="rgb(0%, 0%, 0%)" fill-opacity="0" stroke="rgb(-51%, 30%, 37%)" stroke-opacity="1.0" stroke-width="1.0"><path d="M 303.64,-475.7000 C 338.25,-458.77 397.44,-429.81 432.0,-412.91"/></g><g fill="rgb(0%, 0%, 0%)" fill-opacity="0" stroke="rgb(-51%, 30%, 37%)" stroke-opacity="1.0" stroke-width="1.0"><path d="M 280.4300,-507.41 C 285.63,-530.99 294.27,-573.28 298.17,-609.9700 C 298.47,-612.72 297.99,-657.61 299.78,-659.72 C 321.54,-685.26 362.6,-687.67 389.94,-685.96"/></g><g fill="rgb(0%, 0%, 0%)" fill-opacity="0" stroke="rgb(-51%, 30%, 37%)" stroke-opacity="1.0" stroke-width="1.0"><path d="M 268.0900,-470.7100 C 259.55,-453.8800 244.3900,-429.9900 223.11,-418.8800 C 218.97,-416.72 185.63,-418.5 181.14,-417.25 C 145.5,-407.2800 108.93,-384.92 85.625,-368.8300"/></g><g fill="rgb(0%, 0%, 0%)" fill-opacity="0" stroke="rgb(-51%, 30%, 37%)" stroke-opacity="1.0" stroke-width="1.0"><path d="M 283.69,-507.58 C 288.91,-517.94 296.97,-530.03 308.18,-536.37 C 320.23,-543.18 357.96,-533.55 370.38,-539.66 C 411.25,-559.73 407.77,-582.56 437.18,-617.32 C 450.58,-633.16 465.66,-651.3000 476.57,-664.49"/></g><g fill="rgb(0%, 0%, 0%)" fill-opacity="0" stroke="rgb(-51%, 30%, 37%)" stroke-opacity="1.0" stroke-width="1.0"><path d="M 252.77,-507.5300 C 238.3100,-519.24 219.64,-534.9900 204.2,-550.15 C 199.41,-554.84 189.36,-566.2700 180.63,-576.38"/></g><g fill="rgb(0%, 0%, 0%)" fill-opacity="0" stroke="rgb(-51%, 30%, 37%)" stroke-opacity="1.0" stroke-width="1.0"><path d="M 303.52,-486.4200 C 329.13,-484.77 368.23,-484.51 400.58,-493.9700 C 437.91,-504.8800 439.3,-525.58 476.0900,-538.21 C 500.39,-546.55 528.68,-550.7100 552.18,-552.78"/></g><g fill="rgb(0%, 0%, 0%)" fill-opacity="0" stroke="rgb(-51%, 30%, 37%)" stroke-opacity="1.0" stroke-width="1.0"><path d="M 303.56,-498.2200 C 306.03,-499.0400 308.56,-499.89 311.12,-500.74"/></g><g fill="rgb(0%, 0%, 0%)" fill-opacity="0" stroke="rgb(-51%, 30%, 37%)" stroke-opacity="1.0" stroke-width="1.0"><path d="M 288.15,-470.7000 C 310.75,-434.5400 359.11,-350.93 376.0,-272.66 C 376.99,-268.06 378.02,-234.52 376.0,-230.26 C 363.36,-203.68 335.65,-183.66 314.51,-171.5"/></g><g fill="rgb(0%, 0%, 0%)" fill-opacity="0" stroke="rgb(-51%, 30%, 37%)" stroke-opacity="1.0" stroke-width="1.0"><path d="M 268.0900,-470.7100 C 259.55,-453.8800 244.3900,-429.9900 223.11,-418.8800 C 218.97,-416.72 184.93,-419.9600 181.14,-417.25 C 147.55,-393.2000 138.13,-341.53 135.49,-314.0100"/></g><g fill="rgb(0%, 0%, 0%)" fill-opacity="0" stroke="rgb(-51%, 30%, 37%)" stroke-opacity="1.0" stroke-width="1.0"><path d="M 289.89,-470.91 C 305.52,-447.6800 326.96,-406.69 310.54,-374.85 C 304.09,-362.35 292.77,-352.3800 281.19,-344.81"/></g><g fill="rgb(0%, 0%, 0%)" fill-opacity="0" stroke="rgb(-51%, 30%, 37%)" stroke-opacity="1.0" stroke-width="1.0"><path d="M 367.41,-556.8300 C 379.7,-553.51 393.12,-547.44 400.58,-536.37 C 402.81,-533.05 399.32,-419.71 397.83,-374.6900"/></g><g fill="rgb(0%, 0%, 0%)" fill-opacity="0" stroke="rgb(-51%, 30%, 37%)" stroke-opacity="1.0" stroke-width="1.0"><path d="M 367.54,-578.78 C 391.11,-593.09 426.61,-612.0100 460.64,-619.96 C 500.49,-629.27 547.83,-627.4700 578.99,-624.6000"/></g><g fill="rgb(0%, 0%, 0%)" fill-opacity="0" stroke="rgb(-51%, 30%, 37%)" stroke-opacity="1.0" stroke-width="1.0"><path d="M 367.62,-556.68 C 379.81,-553.32 393.07,-547.2700 400.58,-536.37 C 403.24,-532.49 401.41,-456.3900 402.27,-451.7700 C 408.67,-417.6300 409.47,-407.0200 429.0900,-378.3500 C 440.82,-361.22 458.3300,-345.79 472.99,-334.59"/></g><g fill="rgb(0%, 0%, 0%)" fill-opacity="0" stroke="rgb(-51%, 30%, 37%)" stroke-opacity="1.0" stroke-width="1.0"><path d="M 367.59,-575.22 C 391.7800,-587.6900 428.1500,-605.8800 460.64,-619.96 C 486.4,-631.13 515.95,-642.3000 539.0,-650.67"/></g><g fill="rgb(0%, 0%, 0%)" fill-opacity="0" stroke="rgb(-51%, 30%, 37%)" stroke-opacity="1.0" stroke-width="1.0"><path d="M 312.71,-549.2 C 293.08,-540.16 266.61,-526.46 246.03,-510.3100 C 226.69,-495.1200 208.35,-473.6200 196.47,-458.4200"/></g><g fill="rgb(0%, 0%, 0%)" fill-opacity="0" stroke="rgb(-51%, 30%, 37%)" stroke-opacity="1.0" stroke-width="1.0"><path d="M 367.44,-568.3700 C 390.58,-576.3500 422.32,-591.4700 437.18,-617.32 C 446.5700,-633.66 443.8,-642.07 437.18,-659.72 C 436.5900,-661.3000 435.84,-662.84 434.97,-664.32"/></g><g fill="rgb(0%, 0%, 0%)" fill-opacity="0" stroke="rgb(-51%, 30%, 37%)" stroke-opacity="1.0" stroke-width="1.0"><path d="M 367.33,-573.42 C 387.74,-583.6 415.7600,-599.2000 437.18,-617.32 C 453.59,-631.2 468.93,-650.41 479.15,-664.4500"/></g><g fill="rgb(0%, 0%, 0%)" fill-opacity="0" stroke="rgb(-51%, 30%, 37%)" stroke-opacity="1.0" stroke-width="1.0"><path d="M 367.59,-560.2100 C 411.39,-559.18 497.77,-557.15 552.25,-555.87"/></g><g fill="rgb(0%, 0%, 0%)" fill-opacity="0" stroke="rgb(-51%, 30%, 37%)" stroke-opacity="1.0" stroke-width="1.0"><path d="M 345.87,-542.54 C 346.8,-539.5600 347.76,-536.47 348.68,-533.49"/></g><g fill="rgb(0%, 0%, 0%)" fill-opacity="0" stroke="rgb(-51%, 30%, 37%)" stroke-opacity="1.0" stroke-width="1.0"><path d="M 312.71,-542.9800 C 310.9400,-540.9400 309.38,-538.74 308.18,-536.37 C 304.72,-529.59 309.14,-475.02 306.43,-467.9100 C 298.44,-446.8500 281.4500,-427.6200 267.49,-414.3500"/></g><g fill="rgb(0%, 0%, 0%)" fill-opacity="0" stroke="rgb(-51%, 30%, 37%)" stroke-opacity="1.0" stroke-width="1.0"><path d="M 367.62,-556.68 C 379.81,-553.32 393.07,-547.2700 400.58,-536.37 C 403.24,-532.49 401.46,-456.4000 402.27,-451.7700 C 408.28,-417.5300 420.63,-411.8 427.42,-377.71 C 433.49,-347.25 434.61,-311.02 434.6600,-289.7"/></g><g fill="rgb(0%, 0%, 0%)" fill-opacity="0" stroke="rgb(-51%, 30%, 37%)" stroke-opacity="1.0" stroke-width="1.0"><path d="M 367.51,-550.5 C 377.96,-546.35 389.92,-541.37 400.58,-536.37 C 435.0600,-520.17 439.8900,-507.67 476.0900,-495.81 C 481.03,-494.1900 482.74,-495.82 487.6700,-494.1700 C 517.56,-484.1700 521.8600,-474.5700 549.71,-459.81 C 577.44,-445.1200 588.01,-447.27 612.71,-427.9100 C 627.38,-416.4100 640.97,-400.1300 650.32,-387.65"/></g><g fill="rgb(0%, 0%, 0%)" fill-opacity="0" stroke="rgb(-51%, 30%, 37%)" stroke-opacity="1.0" stroke-width="1.0"><path d="M 312.99,-556.06 C 298.65,-553.77 280.73,-551.28 264.6,-550.15 C 237.15,-548.21 206.63,-548.0900 181.04,-548.5500"/></g><g fill="rgb(0%, 0%, 0%)" fill-opacity="0" stroke="rgb(-51%, 30%, 37%)" stroke-opacity="1.0" stroke-width="1.0"><path d="M 392.76,-192.9900 C 387.46,-208.1100 380.57,-230.25 377.72,-250.2700 C 376.4,-259.6 376.33,-283.3500 377.72,-292.67 C 380.07,-308.3700 385.4900,-325.55 390.02,-338.13"/></g><g fill="rgb(0%, 0%, 0%)" fill-opacity="0" stroke="rgb(-51%, 30%, 37%)" stroke-opacity="1.0" stroke-width="1.0"><path d="M 431.9900,-176.94 C 452.46,-177.72 479.41,-177.5800 502.9,-173.54 C 520.9100,-170.4400 540.17,-164.23 556.15,-158.2300"/></g><g fill="rgb(0%, 0%, 0%)" fill-opacity="0" stroke="rgb(-51%, 30%, 37%)" stroke-opacity="1.0" stroke-width="1.0"><path d="M 431.71,-192.49 C 452.21,-205.6700 477.45,-225.5800 491.12,-250.2700 C 499.1800,-264.81 500.9400,-283.8600 500.93,-297.7400"/></g><g fill="rgb(0%, 0%, 0%)" fill-opacity="0" stroke="rgb(-51%, 30%, 37%)" stroke-opacity="1.0" stroke-width="1.0"><path d="M 431.81,-164.42 C 434.4000,-163.5900 437.01,-162.76 439.58,-161.94"/></g><g fill="rgb(0%, 0%, 0%)" fill-opacity="0" stroke="rgb(-51%, 30%, 37%)" stroke-opacity="1.0" stroke-width="1.0"><path d="M 377.45,-156.4400 C 368.17,-148.82 357.4,-139.9800 348.09,-132.33"/></g><g fill="rgb(0%, 0%, 0%)" fill-opacity="0" stroke="rgb(-51%, 30%, 37%)" stroke-opacity="1.0" stroke-width="1.0"><path d="M 411.53,-156.5900 C 418.02,-147.8900 426.7300,-137.9 436.5,-131.14 C 463.86,-112.21 500.79,-101.0000 525.6600,-95.106"/></g><g fill="rgb(0%, 0%, 0%)" fill-opacity="0" stroke="rgb(-51%, 30%, 37%)" stroke-opacity="1.0" stroke-width="1.0"><path d="M 431.9100,-186.2800 C 449.7,-192.68 471.78,-200.62 489.8200,-207.1100"/></g><g fill="rgb(0%, 0%, 0%)" fill-opacity="0" stroke="rgb(-51%, 30%, 37%)" stroke-opacity="1.0" stroke-width="1.0"><path d="M 479.1700,-531.92 C 420.3900,-558.8600 302.49,-613.25 299.78,-617.32 C 295.4600,-623.8100 301.87,-645.5 298.17,-652.3700 C 294.4400,-659.3200 288.61,-665.2200 282.31,-670.06"/></g><g fill="rgb(0%, 0%, 0%)" fill-opacity="0" stroke="rgb(-51%, 30%, 37%)" stroke-opacity="1.0" stroke-width="1.0"><path d="M 511.16,-498.58 C 510.98,-472.19 513.3800,-422.7300 531.31,-385.5100 C 536.2,-375.35 544.15,-365.9 551.8700,-358.2600"/></g><g fill="rgb(0%, 0%, 0%)" fill-opacity="0" stroke="rgb(-51%, 30%, 37%)" stroke-opacity="1.0" stroke-width="1.0"><path d="M 508.69,-498.57 C 505.5,-484.3900 499.28,-465.04 487.6700,-451.7700 C 468.27,-429.61 449.65,-441.86 429.0900,-420.7500 C 416.5000,-407.8200 407.94,-388.93 402.9,-374.9800"/></g><g fill="rgb(0%, 0%, 0%)" fill-opacity="0" stroke="rgb(-51%, 30%, 37%)" stroke-opacity="1.0" stroke-width="1.0"><path d="M 544.73,-501.5300 C 547.33,-500.3100 549.96,-499.08 552.57,-497.85"/></g><g fill="rgb(0%, 0%, 0%)" fill-opacity="0" stroke="rgb(-51%, 30%, 37%)" stroke-opacity="1.0" stroke-width="1.0"><path d="M 518.37,-535.42 C 524.26,-549.0 534.28,-566.68 549.22,-575.92 C 555.23,-579.6400 558.5800,-574.7 565.04,-577.5600 C 577.45,-583.0700 588.86,-593.06 597.4,-602.0100"/></g><g fill="rgb(0%, 0%, 0%)" fill-opacity="0" stroke="rgb(-51%, 30%, 37%)" stroke-opacity="1.0" stroke-width="1.0"><path d="M 510.7100,-498.84 C 508.45,-460.7000 503.22,-372.71 500.9400,-334.48"/></g><g fill="rgb(0%, 0%, 0%)" fill-opacity="0" stroke="rgb(-51%, 30%, 37%)" stroke-opacity="1.0" stroke-width="1.0"><path d="M 478.82,-532.6400 C 450.27,-546.06 407.8,-565.7700 370.38,-582.06 C 345.72,-592.79 317.94,-604.26 295.39,-613.4"/></g><g fill="rgb(0%, 0%, 0%)" fill-opacity="0" stroke="rgb(-51%, 30%, 37%)" stroke-opacity="1.0" stroke-width="1.0"><path d="M 490.23,-535.4 C 479.0800,-546.36 466.6,-561.28 460.64,-577.5600 C 449.63,-607.66 466.48,-643.64 479.3700,-664.82"/></g><g fill="rgb(0%, 0%, 0%)" fill-opacity="0" stroke="rgb(-51%, 30%, 37%)" stroke-opacity="1.0" stroke-width="1.0"><path d="M 478.87,-523.95 C 456.82,-528.3 427.08,-533.59 400.58,-536.37 C 380.54,-538.46 329.66,-535.32 309.98,-539.66 C 293.31,-543.33 275.6600,-550.52 261.61,-557.13"/></g><g fill="rgb(0%, 0%, 0%)" fill-opacity="0" stroke="rgb(-51%, 30%, 37%)" stroke-opacity="1.0" stroke-width="1.0"><path d="M 544.64,-514.44 C 567.8700,-512.23 599.64,-508.39 627.11,-502.21 C 628.59,-501.8800 630.09,-501.5100 631.6,-501.1100"/></g><g fill="rgb(0%, 0%, 0%)" fill-opacity="0" stroke="rgb(-51%, 30%, 37%)" stroke-opacity="1.0" stroke-width="1.0"><path d="M 479.18,-516.63 C 455.58,-516.35 423.45,-515.98 397.71,-515.67"/></g><g fill="rgb(0%, 0%, 0%)" fill-opacity="0" stroke="rgb(-51%, 30%, 37%)" stroke-opacity="1.0" stroke-width="1.0"><path d="M 514.44,-498.7000 C 518.12,-473.2900 525.06,-425.8800 531.31,-385.5100 C 534.6200,-364.11 537.33,-358.99 539.06,-337.4100 C 540.56,-318.62 540.95,-313.7600 539.06,-295.0100 C 537.05,-275.11 532.16,-252.72 528.42,-237.4800"/></g><g fill="rgb(0%, 0%, 0%)" fill-opacity="0" stroke="rgb(-51%, 30%, 37%)" stroke-opacity="1.0" stroke-width="1.0"><path d="M 511.46,-498.8100 C 510.39,-471.62 506.13,-419.2300 489.49,-378.3500 C 481.1000,-357.7400 471.25,-356.9800 460.66,-337.4100 C 452.33,-322.02 445.17,-303.42 440.44,-289.9"/></g><g fill="rgb(0%, 0%, 0%)" fill-opacity="0" stroke="rgb(-51%, 30%, 37%)" stroke-opacity="1.0" stroke-width="1.0"><path d="M 520.71,-498.7200 C 527.3700,-486.51 537.43,-470.7400 549.71,-459.81 C 573.16,-438.9500 588.01,-447.27 612.71,-427.9100 C 627.38,-416.4100 640.97,-400.1300 650.32,-387.65"/></g><g fill="rgb(0%, 0%, 0%)" fill-opacity="0" stroke="rgb(-51%, 30%, 37%)" stroke-opacity="1.0" stroke-width="1.0"><path d="M 490.03,-535.46 C 462.93,-558.44 416.9500,-597.42 389.98,-620.29"/></g><g fill="rgb(0%, 0%, 0%)" fill-opacity="0" stroke="rgb(-51%, 30%, 37%)" stroke-opacity="1.0" stroke-width="1.0"><path d="M 508.74,-498.5300 C 505.58,-484.3200 499.38,-464.96 487.6700,-451.7700 C 485.75,-449.61 346.69,-379.1200 278.9,-344.8300"/></g><g fill="rgb(0%, 0%, 0%)" fill-opacity="0" stroke="rgb(-51%, 30%, 37%)" stroke-opacity="1.0" stroke-width="1.0"><path d="M 486.75,-385.2400 C 504.9,-375.7900 528.5900,-363.4400 546.69,-354.01"/></g><g fill="rgb(0%, 0%, 0%)" fill-opacity="0" stroke="rgb(-51%, 30%, 37%)" stroke-opacity="1.0" stroke-width="1.0"><path d="M 486.47,-392.9700 C 499.87,-390.05 516.34,-386.95 531.31,-385.5100 C 567.32,-382.03 583.37,-364.34 612.71,-385.5100 C 614.61,-386.88 612.54,-389.0600 614.37,-390.53 C 647.7,-417.2800 700.16,-415.21 731.97,-410.7100"/></g><g fill="rgb(0%, 0%, 0%)" fill-opacity="0" stroke="rgb(-51%, 30%, 37%)" stroke-opacity="1.0" stroke-width="1.0"><path d="M 432.97,-381.3 C 429.93,-379.19 426.83,-377.0400 423.78,-374.9300"/></g><g fill="rgb(0%, 0%, 0%)" fill-opacity="0" stroke="rgb(-51%, 30%, 37%)" stroke-opacity="1.0" stroke-width="1.0"><path d="M 486.6700,-416.8300 C 507.9900,-430.28 537.52,-448.9100 559.27,-462.63"/></g><g fill="rgb(0%, 0%, 0%)" fill-opacity="0" stroke="rgb(-51%, 30%, 37%)" stroke-opacity="1.0" stroke-width="1.0"><path d="M 486.48,-384.83 C 504.0300,-373.9600 525.96,-357.58 539.06,-337.4100 C 543.74,-330.1900 541.55,-326.94 543.72,-318.61 C 558.72,-261.15 577.61,-193.4500 586.6,-161.54"/></g><g fill="rgb(0%, 0%, 0%)" fill-opacity="0" stroke="rgb(-51%, 30%, 37%)" stroke-opacity="1.0" stroke-width="1.0"><path d="M 483.95,-417.79 C 505.22,-435.1600 534.49,-463.42 547.49,-495.81 C 549.15,-499.94 546.2,-572.65 549.22,-575.92 C 551.6100,-578.52 561.81,-576.13 565.04,-577.5600 C 577.45,-583.0700 588.86,-593.06 597.4,-602.0100"/></g><g fill="rgb(0%, 0%, 0%)" fill-opacity="0" stroke="rgb(-51%, 30%, 37%)" stroke-opacity="1.0" stroke-width="1.0"><path d="M 468.29,-381.06 C 475.02,-367.2400 484.16,-348.45 490.88,-334.6500"/></g><g fill="rgb(0%, 0%, 0%)" fill-opacity="0" stroke="rgb(-51%, 30%, 37%)" stroke-opacity="1.0" stroke-width="1.0"><path d="M 431.8,-408.26 C 396.62,-420.9600 336.82,-448.2100 308.18,-493.9700 C 306.24,-497.06 307.4,-506.7900 306.43,-510.3100 C 295.9100,-548.6000 274.49,-589.99 261.5700,-613.0400"/></g><g fill="rgb(0%, 0%, 0%)" fill-opacity="0" stroke="rgb(-51%, 30%, 37%)" stroke-opacity="1.0" stroke-width="1.0"><path d="M 483.95,-417.79 C 505.22,-435.1600 534.49,-463.42 547.49,-495.81 C 549.15,-499.94 546.2,-572.65 549.22,-575.92 C 551.6100,-578.52 562.48,-575.13 565.04,-577.5600 C 567.51,-579.92 573.03,-621.48 576.12,-646.28"/></g><g fill="rgb(0%, 0%, 0%)" fill-opacity="0" stroke="rgb(-51%, 30%, 37%)" stroke-opacity="1.0" stroke-width="1.0"><path d="M 432.03,-403.5500 C 382.19,-410.86 276.3100,-426.39 219.97,-434.65"/></g><g fill="rgb(0%, 0%, 0%)" fill-opacity="0" stroke="rgb(-51%, 30%, 37%)" stroke-opacity="1.0" stroke-width="1.0"><path d="M 452.5300,-381.27 C 447.0200,-367.7600 438.35,-349.3600 427.42,-335.31 C 409.55,-312.3400 390.24,-318.94 377.72,-292.67 C 374.74,-286.41 377.5,-237.04 376.0,-230.26 C 371.64,-210.6 347.78,-159.59 334.53,-132.1"/></g><g fill="rgb(0%, 0%, 0%)" fill-opacity="0" stroke="rgb(-51%, 30%, 37%)" stroke-opacity="1.0" stroke-width="1.0"><path d="M 431.94,-417.0600 C 420.57,-425.95 408.58,-437.8300 402.27,-451.7700 C 398.4,-460.34 405.91,-528.62 400.58,-536.37 C 393.07,-547.2700 379.81,-553.32 367.62,-556.68"/></g><g fill="rgb(0%, 0%, 0%)" fill-opacity="0" stroke="rgb(-51%, 30%, 37%)" stroke-opacity="1.0" stroke-width="1.0"><path d="M 452.5300,-381.27 C 447.0200,-367.7600 438.35,-349.3600 427.42,-335.31 C 409.55,-312.3400 389.88,-319.11 377.72,-292.67 C 375.76,-288.39 377.06,-254.93 377.72,-250.2700 C 380.57,-230.25 387.46,-208.1100 392.76,-192.9900"/></g><g fill="rgb(0%, 0%, 0%)" fill-opacity="0" stroke="rgb(-51%, 30%, 37%)" stroke-opacity="1.0" stroke-width="1.0"><path d="M 473.7400,-417.7 C 488.44,-438.4700 506.57,-472.42 487.6700,-494.1700 C 484.26,-498.1 479.93,-492.3100 476.0900,-495.81 C 420.75,-546.24 471.4400,-593.14 437.18,-659.72 C 436.41,-661.22 435.52,-662.7000 434.56,-664.1400"/></g><g fill="rgb(0%, 0%, 0%)" fill-opacity="0" stroke="rgb(-51%, 30%, 37%)" stroke-opacity="1.0" stroke-width="1.0"><path d="M 486.48,-384.83 C 504.0300,-373.9600 525.96,-357.58 539.06,-337.4100 C 543.74,-330.1900 537.92,-324.9700 543.72,-318.61 C 581.52,-277.21 611.81,-300.34 662.89,-277.24 C 666.32,-275.69 669.84,-273.94 673.3,-272.12"/></g><g fill="rgb(0%, 0%, 0%)" fill-opacity="0" stroke="rgb(-51%, 30%, 37%)" stroke-opacity="1.0" stroke-width="1.0"><path d="M 472.23,-417.95 C 478.19,-427.55 484.6200,-439.77 487.6700,-451.7700 C 492.31,-470.0400 500.03,-479.9500 487.6700,-494.1700 C 484.26,-498.1 479.8500,-492.22 476.0900,-495.81 C 449.35,-521.34 464.09,-540.75 460.64,-577.5600 C 458.88,-596.33 456.3500,-601.61 460.64,-619.96 C 464.3600,-635.8800 472.7200,-652.39 479.84,-664.51"/></g><g fill="rgb(0%, 0%, 0%)" fill-opacity="0" stroke="rgb(-51%, 30%, 37%)" stroke-opacity="1.0" stroke-width="1.0"><path d="M 431.8,-408.26 C 396.62,-420.9600 336.82,-448.2100 308.18,-493.9700 C 304.3,-500.16 310.87,-504.51 306.43,-510.3100 C 276.8200,-549.0500 244.16,-522.2 204.2,-550.15 C 201.28,-552.19 190.1,-564.99 180.41,-576.3500"/></g><g fill="rgb(0%, 0%, 0%)" fill-opacity="0" stroke="rgb(-51%, 30%, 37%)" stroke-opacity="1.0" stroke-width="1.0"><path d="M 480.4800,-417.8900 C 500.22,-435.97 529.27,-465.25 547.49,-495.81 C 549.04,-498.4 548.13,-499.65 549.71,-502.21 C 557.54,-514.89 568.91,-526.94 578.95,-536.3"/></g><g fill="rgb(0%, 0%, 0%)" fill-opacity="0" stroke="rgb(-51%, 30%, 37%)" stroke-opacity="1.0" stroke-width="1.0"><path d="M 486.52,-410.6700 C 499.9400,-416.0500 516.4,-422.5000 531.31,-427.9100 C 573.49,-443.23 588.97,-436.1700 627.11,-459.81 C 633.11,-463.5300 638.83,-468.59 643.72,-473.5900"/></g><g fill="rgb(0%, 0%, 0%)" fill-opacity="0" stroke="rgb(-51%, 30%, 37%)" stroke-opacity="1.0" stroke-width="1.0"><path d="M 486.66,-384.9400 C 504.2900,-374.12 526.23,-357.7500 539.06,-337.4100 C 540.53,-335.0700 560.04,-243.2100 560.3400,-240.4700 C 562.37,-221.7400 562.3300,-216.81 560.3400,-198.0700 C 558.72,-182.8200 554.73,-179.59 553.1,-164.34 C 551.05,-145.26 551.3300,-123.2900 551.93,-108.1500"/></g><g fill="rgb(0%, 0%, 0%)" fill-opacity="0" stroke="rgb(-51%, 30%, 37%)" stroke-opacity="1.0" stroke-width="1.0"><path d="M 486.48,-384.83 C 504.0300,-373.9600 525.96,-357.58 539.06,-337.4100 C 543.74,-330.1900 540.55,-326.6100 543.72,-318.61 C 572.74,-245.4900 610.56,-240.4400 630.5,-164.34 C 635.27,-146.11 634.41,-140.3700 630.5,-121.9400 C 630.19,-120.5 629.78,-119.0400 629.31,-117.5900"/></g><g fill="rgb(0%, 0%, 0%)" fill-opacity="0" stroke="rgb(-51%, 30%, 37%)" stroke-opacity="1.0" stroke-width="1.0"><path d="M 437.29,-418.02 C 426.32,-427.6400 413.11,-439.86 402.27,-451.7700 C 389.28,-466.06 376.17,-483.6800 366.96,-496.7100"/></g><g fill="rgb(0%, 0%, 0%)" fill-opacity="0" stroke="rgb(-51%, 30%, 37%)" stroke-opacity="1.0" stroke-width="1.0"><path d="M 452.5300,-381.27 C 447.0200,-367.7600 438.35,-349.3600 427.42,-335.31 C 409.55,-312.3400 390.24,-318.94 377.72,-292.67 C 374.74,-286.41 379.06,-236.4900 376.0,-230.26 C 363.0,-203.86 335.34,-183.81 314.32,-171.6000"/></g><g fill="rgb(0%, 0%, 0%)" fill-opacity="0" stroke="rgb(-51%, 30%, 37%)" stroke-opacity="1.0" stroke-width="1.0"><path d="M 486.7300,-411.1800 C 500.0600,-416.6200 516.38,-422.9700 531.31,-427.9100 C 600.3,-450.7500 626.19,-434.34 689.16,-470.64 C 702.62,-478.4000 715.01,-490.7800 723.94,-501.0800"/></g><g fill="rgb(0%, 0%, 0%)" fill-opacity="0" stroke="rgb(-51%, 30%, 37%)" stroke-opacity="1.0" stroke-width="1.0"><path d="M 431.9600,-397.92 C 412.53,-395.65 386.52,-390.31 367.02,-377.71 C 332.89,-355.66 345.27,-327.48 311.24,-305.26 C 302.87,-299.7900 175.61,-270.07 112.99,-255.66"/></g><g fill="rgb(0%, 0%, 0%)" fill-opacity="0" stroke="rgb(-51%, 30%, 37%)" stroke-opacity="1.0" stroke-width="1.0"><path d="M 452.9700,-381.3400 C 446.18,-358.0600 439.0400,-318.0400 460.66,-295.0100 C 465.3000,-290.05 485.58,-296.59 491.12,-292.67 C 509.11,-279.9600 517.28,-254.9800 520.9,-237.72"/></g><g fill="rgb(0%, 0%, 0%)" fill-opacity="0" stroke="rgb(-51%, 30%, 37%)" stroke-opacity="1.0" stroke-width="1.0"><path d="M 431.8200,-399.1000 C 400.63,-398.5900 348.75,-397.74 307.7,-397.0600"/></g><g fill="rgb(0%, 0%, 0%)" fill-opacity="0" stroke="rgb(-51%, 30%, 37%)" stroke-opacity="1.0" stroke-width="1.0"><path d="M 453.46,-381.24 C 448.32,-367.37 439.74,-348.51 427.42,-335.31 C 400.31,-306.25 360.84,-284.16 330.21,-269.96"/></g><g fill="rgb(0%, 0%, 0%)" fill-opacity="0" stroke="rgb(-51%, 30%, 37%)" stroke-opacity="1.0" stroke-width="1.0"><path d="M 472.23,-417.95 C 478.19,-427.55 484.6200,-439.77 487.6700,-451.7700 C 492.31,-470.0400 500.03,-479.9500 487.6700,-494.1700 C 484.26,-498.1 479.5,-491.89 476.0900,-495.81 C 463.74,-510.0400 471.02,-520.06 476.0900,-538.21 C 480.4,-553.6 489.81,-568.98 498.0300,-580.38"/></g><g fill="rgb(0%, 0%, 0%)" fill-opacity="0" stroke="rgb(-51%, 30%, 37%)" stroke-opacity="1.0" stroke-width="1.0"><path d="M 486.48,-384.83 C 504.0300,-373.9600 525.96,-357.58 539.06,-337.4100 C 543.74,-330.1900 538.86,-325.71 543.72,-318.61 C 559.0900,-296.1800 585.32,-279.18 605.33,-268.61"/></g><g fill="rgb(0%, 0%, 0%)" fill-opacity="0" stroke="rgb(-51%, 30%, 37%)" stroke-opacity="1.0" stroke-width="1.0"><path d="M 455.73,-381.2 C 451.0000,-356.85 442.7000,-314.12 437.98,-289.7900"/></g><g fill="rgb(0%, 0%, 0%)" fill-opacity="0" stroke="rgb(-51%, 30%, 37%)" stroke-opacity="1.0" stroke-width="1.0"><path d="M 486.57,-393.7600 C 500.0000,-391.03 516.46,-387.8700 531.31,-385.5100 C 559.76,-380.99 591.84,-377.0300 617.23,-374.1500"/></g><g fill="rgb(0%, 0%, 0%)" fill-opacity="0" stroke="rgb(-51%, 30%, 37%)" stroke-opacity="1.0" stroke-width="1.0"><path d="M 431.94,-417.0600 C 420.57,-425.95 408.58,-437.8300 402.27,-451.7700 C 400.33,-456.06 401.33,-531.73 400.58,-536.37 C 395.65,-566.45 383.86,-599.9100 376.03,-620.08"/></g><g fill="rgb(0%, 0%, 0%)" fill-opacity="0" stroke="rgb(-51%, 30%, 37%)" stroke-opacity="1.0" stroke-width="1.0"><path d="M 431.9300,-394.2600 C 413.4000,-390.3900 388.49,-384.62 367.02,-377.71 C 338.21,-368.43 306.7,-355.4300 282.59,-344.84"/></g><g fill="rgb(0%, 0%, 0%)" fill-opacity="0" stroke="rgb(-51%, 30%, 37%)" stroke-opacity="1.0" stroke-width="1.0"><path d="M 434.97,-664.32 C 435.84,-662.84 436.5900,-661.3000 437.18,-659.72 C 443.8,-642.07 439.78,-635.98 437.18,-617.32 C 429.3500,-560.9700 411.14,-550.3700 402.27,-494.1700 C 395.6,-451.89 395.79,-401.4300 396.51,-374.9000"/></g><g fill="rgb(0%, 0%, 0%)" fill-opacity="0" stroke="rgb(-51%, 30%, 37%)" stroke-opacity="1.0" stroke-width="1.0"><path d="M 434.97,-664.32 C 435.84,-662.84 436.5900,-661.3000 437.18,-659.72 C 443.8,-642.07 443.48,-635.08 437.18,-617.32 C 425.06,-583.11 396.05,-551.99 375.81,-533.31"/></g><g fill="rgb(0%, 0%, 0%)" fill-opacity="0" stroke="rgb(-51%, 30%, 37%)" stroke-opacity="1.0" stroke-width="1.0"><path d="M 674.33,-273.41 C 652.67,-287.74 622.78,-307.5 601.25,-321.7400"/></g><g fill="rgb(0%, 0%, 0%)" fill-opacity="0" stroke="rgb(-51%, 30%, 37%)" stroke-opacity="1.0" stroke-width="1.0"><path d="M 673.3,-272.12 C 669.84,-273.94 666.32,-275.69 662.89,-277.24 C 611.81,-300.34 581.52,-277.21 543.72,-318.61 C 537.92,-324.9700 545.47,-331.6600 539.06,-337.4100 C 507.88,-365.35 456.3,-364.78 424.68,-361.1300"/></g><g fill="rgb(0%, 0%, 0%)" fill-opacity="0" stroke="rgb(-51%, 30%, 37%)" stroke-opacity="1.0" stroke-width="1.0"><path d="M 673.45,-272.46 C 669.96,-274.22 666.39,-275.86 662.89,-277.24 C 620.78,-293.81 569.68,-304.6300 536.04,-310.57"/></g><g fill="rgb(0%, 0%, 0%)" fill-opacity="0" stroke="rgb(-51%, 30%, 37%)" stroke-opacity="1.0" stroke-width="1.0"><path d="M 673.54,-240.01 C 669.97,-238.23 666.36,-236.4700 662.89,-234.8400 C 606.12,-208.16 538.43,-180.0900 500.11,-164.5400"/></g><g fill="rgb(0%, 0%, 0%)" fill-opacity="0" stroke="rgb(-51%, 30%, 37%)" stroke-opacity="1.0" stroke-width="1.0"><path d="M 89.85,-351.04 C 154.07,-352.1800 307.62,-354.9200 370.09,-356.03"/></g><g fill="rgb(0%, 0%, 0%)" fill-opacity="0" stroke="rgb(-51%, 30%, 37%)" stroke-opacity="1.0" stroke-width="1.0"><path d="M 60.184,-368.8600 C 59.255,-393.2000 57.626,-435.9200 56.698,-460.2400"/></g><g fill="rgb(0%, 0%, 0%)" fill-opacity="0" stroke="rgb(-51%, 30%, 37%)" stroke-opacity="1.0" stroke-width="1.0"><path d="M 260.73,-125.1500 C 270.97,-128.95 282.8300,-132.8000 293.95,-135.1000 C 299.0600,-136.16 312.9,-134.05 317.37,-136.74 C 338.41,-149.36 368.89,-206.79 376.0,-230.26 C 378.01,-236.9000 376.6,-285.82 377.72,-292.67 C 380.29,-308.3400 385.69,-325.52 390.16,-338.11"/></g><g fill="rgb(0%, 0%, 0%)" fill-opacity="0" stroke="rgb(-51%, 30%, 37%)" stroke-opacity="1.0" stroke-width="1.0"><path d="M 260.73,-125.1500 C 270.97,-128.95 282.8300,-132.8000 293.95,-135.1000 C 304.17,-137.2200 306.97,-135.84 317.37,-136.74 C 359.75,-140.39 408.66,-145.57 439.3800,-148.9400"/></g><g fill="rgb(0%, 0%, 0%)" fill-opacity="0" stroke="rgb(-51%, 30%, 37%)" stroke-opacity="1.0" stroke-width="1.0"><path d="M 260.73,-125.1500 C 270.97,-128.95 282.8300,-132.8000 293.95,-135.1000 C 299.0600,-136.16 312.75,-134.31 317.37,-136.74 C 347.11,-152.37 335.34,-179.1200 364.46,-195.88 C 403.32,-218.2300 456.02,-221.7500 489.93,-221.27"/></g><g fill="rgb(0%, 0%, 0%)" fill-opacity="0" stroke="rgb(-51%, 30%, 37%)" stroke-opacity="1.0" stroke-width="1.0"><path d="M 164.04,-240.39 C 170.72,-251.2800 180.5400,-264.49 192.6,-272.66 C 237.8700,-303.3400 260.94,-283.82 311.24,-305.26 C 332.19,-314.18 354.21,-327.39 370.72,-338.1700"/></g><g fill="rgb(0%, 0%, 0%)" fill-opacity="0" stroke="rgb(-51%, 30%, 37%)" stroke-opacity="1.0" stroke-width="1.0"><path d="M 188.13,-215.5900 C 221.66,-208.69 274.1,-196.3200 317.37,-179.14 C 339.52,-170.34 341.39,-159.49 364.46,-153.4800 C 389.04,-147.0700 417.9500,-147.28 439.25,-148.82"/></g><g fill="rgb(0%, 0%, 0%)" fill-opacity="0" stroke="rgb(-51%, 30%, 37%)" stroke-opacity="1.0" stroke-width="1.0"><path d="M 164.04,-240.39 C 170.72,-251.2800 180.5400,-264.49 192.6,-272.66 C 237.8700,-303.3400 273.86,-265.35 311.24,-305.26 C 361.98,-359.43 359.83,-456.6500 356.41,-496.9200"/></g><g fill="rgb(0%, 0%, 0%)" fill-opacity="0" stroke="rgb(-51%, 30%, 37%)" stroke-opacity="1.0" stroke-width="1.0"><path d="M 188.0,-217.43 C 232.42,-212.7200 312.31,-208.7500 376.0,-230.26 C 390.11,-235.03 403.83,-244.38 414.42,-252.97"/></g><g fill="rgb(0%, 0%, 0%)" fill-opacity="0" stroke="rgb(-51%, 30%, 37%)" stroke-opacity="1.0" stroke-width="1.0"><path d="M 479.89,-664.62 C 459.4400,-631.95 418.27,-560.83 402.27,-494.1700 C 392.22,-452.3100 393.81,-401.26 395.64,-374.64"/></g><g fill="rgb(0%, 0%, 0%)" fill-opacity="0" stroke="rgb(-51%, 30%, 37%)" stroke-opacity="1.0" stroke-width="1.0"><path d="M 511.9100,-664.57 C 519.44,-657.8 528.1100,-650.12 536.13,-643.3000 C 548.71,-632.6100 557.92,-634.8600 565.04,-619.96 C 573.17,-602.96 577.66,-591.56 565.04,-577.5600 C 562.67,-574.94 551.5900,-578.55 549.22,-575.92 C 536.6,-561.93 543.28,-551.4100 549.22,-533.52 C 553.45,-520.78 562.11,-508.63 570.21,-499.2300"/></g><g fill="rgb(0%, 0%, 0%)" fill-opacity="0" stroke="rgb(-51%, 30%, 37%)" stroke-opacity="1.0" stroke-width="1.0"><path d="M 508.51,-664.78 C 516.29,-657.2400 526.04,-648.94 536.13,-643.3000 C 549.33,-635.92 565.18,-630.67 579.02,-627.08"/></g><g fill="rgb(0%, 0%, 0%)" fill-opacity="0" stroke="rgb(-51%, 30%, 37%)" stroke-opacity="1.0" stroke-width="1.0"><path d="M 457.48,-664.4600 C 454.1600,-663.22 450.79,-662.15 447.4500,-661.3600 C 431.4800,-657.59 315.59,-664.1 299.78,-659.72 C 291.83,-657.52 283.85,-653.6900 276.7,-649.53"/></g><g fill="rgb(0%, 0%, 0%)" fill-opacity="0" stroke="rgb(-51%, 30%, 37%)" stroke-opacity="1.0" stroke-width="1.0"><path d="M 531.77,-674.4200 C 534.1600,-673.9100 536.56,-673.4000 538.95,-672.8900"/></g><g fill="rgb(0%, 0%, 0%)" fill-opacity="0" stroke="rgb(-51%, 30%, 37%)" stroke-opacity="1.0" stroke-width="1.0"><path d="M 511.9100,-664.57 C 519.44,-657.8 528.1100,-650.12 536.13,-643.3000 C 548.71,-632.6100 554.54,-632.71 565.04,-619.96 C 571.67,-611.91 567.96,-605.8500 576.01,-599.2100 C 603.46,-576.56 630.37,-603.69 652.62,-575.92 C 667.45,-557.42 666.05,-528.66 663.02,-510.0400"/></g><g fill="rgb(0%, 0%, 0%)" fill-opacity="0" stroke="rgb(-51%, 30%, 37%)" stroke-opacity="1.0" stroke-width="1.0"><path d="M 476.82,-664.67 C 450.39,-632.39 395.74,-565.67 369.32,-533.4200"/></g><g fill="rgb(0%, 0%, 0%)" fill-opacity="0" stroke="rgb(-51%, 30%, 37%)" stroke-opacity="1.0" stroke-width="1.0"><path d="M 511.9100,-664.57 C 519.44,-657.8 528.1100,-650.12 536.13,-643.3000 C 548.71,-632.6100 554.54,-632.71 565.04,-619.96 C 571.67,-611.91 567.96,-605.8500 576.01,-599.2100 C 603.46,-576.56 620.44,-591.11 652.62,-575.92 C 674.84,-565.43 697.92,-549.74 714.48,-537.5100"/></g><g fill="rgb(0%, 0%, 0%)" fill-opacity="0" stroke="rgb(-51%, 30%, 37%)" stroke-opacity="1.0" stroke-width="1.0"><path d="M 180.55,-576.5 C 181.73,-574.97 182.88,-573.4300 183.95,-571.9100 C 215.06,-527.98 209.86,-507.7700 246.03,-467.9100 C 256.17,-456.74 330.61,-403.5400 371.12,-374.89"/></g><g fill="rgb(0%, 0%, 0%)" fill-opacity="0" stroke="rgb(-51%, 30%, 37%)" stroke-opacity="1.0" stroke-width="1.0"><path d="M 578.95,-536.3 C 568.91,-526.94 557.54,-514.89 549.71,-502.21 C 548.13,-499.65 549.28,-498.2300 547.49,-495.81 C 527.91,-469.2300 515.6300,-469.33 487.6700,-451.7700 C 462.72,-436.1100 449.65,-441.86 429.0900,-420.7500 C 416.5000,-407.8200 407.94,-388.93 402.9,-374.9800"/></g><g fill="rgb(0%, 0%, 0%)" fill-opacity="0" stroke="rgb(-51%, 30%, 37%)" stroke-opacity="1.0" stroke-width="1.0"><path d="M 597.83,-536.5000 C 595.9,-525.16 593.44,-510.6300 591.51,-499.2800"/></g><g fill="rgb(0%, 0%, 0%)" fill-opacity="0" stroke="rgb(-51%, 30%, 37%)" stroke-opacity="1.0" stroke-width="1.0"><path d="M 552.22,-548.92 C 529.11,-546.0000 501.13,-542.23 476.0900,-538.21 C 449.97,-534.01 420.86,-528.5300 397.65,-523.96"/></g><g fill="rgb(0%, 0%, 0%)" fill-opacity="0" stroke="rgb(-51%, 30%, 37%)" stroke-opacity="1.0" stroke-width="1.0"><path d="M 649.64,-542.07 C 663.96,-538.3500 679.54,-534.3 693.57,-530.66"/></g><g fill="rgb(0%, 0%, 0%)" fill-opacity="0" stroke="rgb(-51%, 30%, 37%)" stroke-opacity="1.0" stroke-width="1.0"><path d="M 578.95,-536.3 C 568.91,-526.94 557.54,-514.89 549.71,-502.21 C 548.13,-499.65 548.66,-498.59 547.49,-495.81 C 525.02,-442.1 519.23,-428.4100 489.49,-378.3500 C 478.12,-359.22 471.25,-356.9800 460.66,-337.4100 C 452.33,-322.02 445.17,-303.42 440.44,-289.9"/></g><g fill="rgb(0%, 0%, 0%)" fill-opacity="0" stroke="rgb(-51%, 30%, 37%)" stroke-opacity="1.0" stroke-width="1.0"><path d="M 552.19,-557.58 C 524.58,-560.4400 489.8200,-566.15 460.64,-577.5600 C 434.56,-587.77 408.25,-606.16 390.46,-620.08"/></g><g fill="rgb(0%, 0%, 0%)" fill-opacity="0" stroke="rgb(-51%, 30%, 37%)" stroke-opacity="1.0" stroke-width="1.0"><path d="M 446.61,-88.545 C 442.94,-100.54 438.59,-116.59 436.5,-131.14 C 435.48,-138.26 437.7800,-189.3 434.8600,-195.88 C 420.64,-227.92 391.54,-218.04 377.72,-250.2700 C 375.87,-254.6000 377.03,-288.01 377.72,-292.67 C 380.07,-308.3700 385.4900,-325.55 390.02,-338.13"/></g><g fill="rgb(0%, 0%, 0%)" fill-opacity="0" stroke="rgb(-51%, 30%, 37%)" stroke-opacity="1.0" stroke-width="1.0"><path d="M 261.6,-555.72 C 277.47,-545.06 296.31,-529.43 306.43,-510.3100 C 309.85,-503.8500 303.89,-499.88 308.18,-493.9700 C 359.21,-423.63 415.54,-466.4000 489.49,-420.7500 C 504.1800,-411.6900 536.59,-378.97 556.71,-358.0100"/></g><g fill="rgb(0%, 0%, 0%)" fill-opacity="0" stroke="rgb(-51%, 30%, 37%)" stroke-opacity="1.0" stroke-width="1.0"><path d="M 261.6,-555.72 C 277.47,-545.06 296.31,-529.43 306.43,-510.3100 C 309.85,-503.8500 305.74,-500.8500 308.18,-493.9700 C 324.79,-447.06 360.3,-400.05 381.11,-375.0000"/></g><g fill="rgb(0%, 0%, 0%)" fill-opacity="0" stroke="rgb(-51%, 30%, 37%)" stroke-opacity="1.0" stroke-width="1.0"><path d="M 643.72,-473.5900 C 638.83,-468.59 633.11,-463.5300 627.11,-459.81 C 588.97,-436.1700 568.46,-453.09 531.31,-427.9100 C 507.45,-411.7400 514.04,-393.4500 489.49,-378.3500 C 469.72,-366.2000 443.7300,-360.8100 424.38,-358.42"/></g><g fill="rgb(0%, 0%, 0%)" fill-opacity="0" stroke="rgb(-51%, 30%, 37%)" stroke-opacity="1.0" stroke-width="1.0"><path d="M 551.93,-108.1500 C 551.3300,-123.2900 551.05,-145.26 553.1,-164.34 C 554.73,-179.59 557.99,-182.9200 560.3400,-198.0700 C 567.14,-242.0500 571.09,-294.26 572.84,-321.38"/></g><g fill="rgb(0%, 0%, 0%)" fill-opacity="0" stroke="rgb(-51%, 30%, 37%)" stroke-opacity="1.0" stroke-width="1.0"><path d="M 542.23,-108.12 C 532.23,-125.2000 516.81,-151.23 502.9,-173.54 C 496.0200,-184.57 490.64,-185.6 486.94,-198.0700 C 481.5800,-216.14 483.16,-222.01 486.94,-240.4700 C 487.8900,-245.1100 490.1700,-245.6300 491.12,-250.2700 C 494.9,-268.73 503.93,-278.84 491.12,-292.67 C 486.51,-297.65 466.85,-292.2200 460.66,-295.0100 C 439.82,-304.3900 421.75,-323.69 410.28,-338.1800"/></g><g fill="rgb(0%, 0%, 0%)" fill-opacity="0" stroke="rgb(-51%, 30%, 37%)" stroke-opacity="1.0" stroke-width="1.0"><path d="M 570.34,-107.92 C 576.13,-112.86 582.95,-117.5900 590.14,-120.3300 C 598.52,-123.5300 622.21,-118.4800 630.5,-121.9400 C 658.49,-133.64 682.62,-159.96 696.68,-177.8800"/></g><g fill="rgb(0%, 0%, 0%)" fill-opacity="0" stroke="rgb(-51%, 30%, 37%)" stroke-opacity="1.0" stroke-width="1.0"><path d="M 566.33,-108.0800 C 570.28,-113.51 574.6,-119.46 578.54,-124.8900"/></g><g fill="rgb(0%, 0%, 0%)" fill-opacity="0" stroke="rgb(-51%, 30%, 37%)" stroke-opacity="1.0" stroke-width="1.0"><path d="M 528.44,-108.1400 C 517.6,-116.3000 504.88,-125.8600 494.0600,-134.0100"/></g><g fill="rgb(0%, 0%, 0%)" fill-opacity="0" stroke="rgb(-51%, 30%, 37%)" stroke-opacity="1.0" stroke-width="1.0"><path d="M 548.8300,-107.97 C 543.24,-132.67 533.3400,-176.42 527.76,-201.0700"/></g><g fill="rgb(0%, 0%, 0%)" fill-opacity="0" stroke="rgb(-51%, 30%, 37%)" stroke-opacity="1.0" stroke-width="1.0"><path d="M 542.6000,-107.9 C 532.72,-125.05 517.27,-151.3300 502.9,-173.54 C 484.5300,-201.93 461.79,-233.87 447.7000,-253.3300"/></g><g fill="rgb(0%, 0%, 0%)" fill-opacity="0" stroke="rgb(-51%, 30%, 37%)" stroke-opacity="1.0" stroke-width="1.0"><path d="M 629.31,-117.5900 C 629.78,-119.0400 630.19,-120.5 630.5,-121.9400 C 634.41,-140.3700 637.35,-146.78 630.5,-164.34 C 599.87,-242.7700 569.89,-262.9 491.12,-292.67 C 478.42,-297.47 473.04,-289.43 460.66,-295.0100 C 439.82,-304.3900 421.75,-323.69 410.28,-338.1800"/></g><g fill="rgb(0%, 0%, 0%)" fill-opacity="0" stroke="rgb(-51%, 30%, 37%)" stroke-opacity="1.0" stroke-width="1.0"><path d="M 637.16,-117.3700 C 653.04,-134.6 676.75,-160.3100 692.71,-177.62"/></g><g fill="rgb(0%, 0%, 0%)" fill-opacity="0" stroke="rgb(-51%, 30%, 37%)" stroke-opacity="1.0" stroke-width="1.0"><path d="M 593.13,-108.2000 C 580.88,-112.33 566.24,-117.3200 553.1,-121.9400 C 535.51,-128.13 515.9100,-135.25 500.1400,-141.05"/></g><g fill="rgb(0%, 0%, 0%)" fill-opacity="0" stroke="rgb(-51%, 30%, 37%)" stroke-opacity="1.0" stroke-width="1.0"><path d="M 592.88,-108.3800 C 589.63,-109.3000 586.34,-110.16 583.17,-110.8800 C 518.98,-125.3500 494.16,-99.421 436.5,-131.14 C 425.7400,-137.0500 416.76,-147.4500 410.36,-156.61"/></g><g fill="rgb(0%, 0%, 0%)" fill-opacity="0" stroke="rgb(-51%, 30%, 37%)" stroke-opacity="1.0" stroke-width="1.0"><path d="M 359.29,-496.9700 C 367.51,-466.53 383.96,-405.6100 392.23,-374.9900"/></g><g fill="rgb(0%, 0%, 0%)" fill-opacity="0" stroke="rgb(-51%, 30%, 37%)" stroke-opacity="1.0" stroke-width="1.0"><path d="M 314.32,-171.6000 C 335.34,-183.81 363.0,-203.86 376.0,-230.26 C 379.06,-236.4900 376.6,-285.82 377.72,-292.67 C 380.29,-308.3400 385.69,-325.52 390.16,-338.11"/></g><g fill="rgb(0%, 0%, 0%)" fill-opacity="0" stroke="rgb(-51%, 30%, 37%)" stroke-opacity="1.0" stroke-width="1.0"><path d="M 314.34,-156.0600 C 329.15,-155.1100 347.8,-154.05 364.46,-153.4800 C 389.66,-152.6100 418.27,-152.35 439.3,-152.29"/></g><g fill="rgb(0%, 0%, 0%)" fill-opacity="0" stroke="rgb(-51%, 30%, 37%)" stroke-opacity="1.0" stroke-width="1.0"><path d="M 259.9500,-171.05 C 239.14,-181.08 210.3300,-194.97 188.05,-205.7"/></g><g fill="rgb(0%, 0%, 0%)" fill-opacity="0" stroke="rgb(-51%, 30%, 37%)" stroke-opacity="1.0" stroke-width="1.0"><path d="M 314.66,-153.7 C 328.59,-150.46 345.1,-144.8200 357.35,-135.1000 C 392.44,-107.26 376.6,-79.2390 409.53,-48.8710 C 414.6500,-44.155 420.6200,-39.991 426.8,-36.372"/></g><g fill="rgb(0%, 0%, 0%)" fill-opacity="0" stroke="rgb(-51%, 30%, 37%)" stroke-opacity="1.0" stroke-width="1.0"><path d="M 123.95,-416.18 C 137.73,-402.2100 158.69,-383.88 181.14,-374.85 C 244.88,-349.1900 327.55,-350.8000 369.78,-353.83"/></g><g fill="rgb(0%, 0%, 0%)" fill-opacity="0" stroke="rgb(-51%, 30%, 37%)" stroke-opacity="1.0" stroke-width="1.0"><path d="M 723.94,-501.0800 C 715.01,-490.7800 702.62,-478.4000 689.16,-470.64 C 626.19,-434.34 592.61,-466.9600 531.31,-427.9100 C 507.0,-412.4300 514.04,-393.4500 489.49,-378.3500 C 469.72,-366.2000 443.7300,-360.8100 424.38,-358.42"/></g><g fill="rgb(0%, 0%, 0%)" fill-opacity="0" stroke="rgb(-51%, 30%, 37%)" stroke-opacity="1.0" stroke-width="1.0"><path d="M 719.84,-500.8100 C 686.26,-466.9200 617.65,-397.24 614.37,-390.53 C 610.83,-383.27 607.35,-326.01 604.12,-318.61 C 590.1,-286.47 562.73,-256.16 543.8300,-237.67"/></g><g fill="rgb(0%, 0%, 0%)" fill-opacity="0" stroke="rgb(-51%, 30%, 37%)" stroke-opacity="1.0" stroke-width="1.0"><path d="M 112.99,-255.7 C 173.11,-269.6 292.93,-297.7300 311.24,-305.26 C 332.46,-313.98 354.66,-327.33 371.1800,-338.22"/></g><g fill="rgb(0%, 0%, 0%)" fill-opacity="0" stroke="rgb(-51%, 30%, 37%)" stroke-opacity="1.0" stroke-width="1.0"><path d="M 112.3,-477.8 C 145.18,-476.1200 187.14,-471.8100 223.11,-461.2800 C 264.87,-449.06 273.2,-439.57 310.54,-417.25 C 332.46,-404.14 356.13,-387.3600 373.19,-374.7600"/></g><g fill="rgb(0%, 0%, 0%)" fill-opacity="0" stroke="rgb(-51%, 30%, 37%)" stroke-opacity="1.0" stroke-width="1.0"><path d="M 169.2,-292.9 C 205.47,-290.88 263.61,-290.7700 311.24,-305.26 C 334.02,-312.18 357.04,-326.38 373.52,-338.07"/></g><g fill="rgb(0%, 0%, 0%)" fill-opacity="0" stroke="rgb(-51%, 30%, 37%)" stroke-opacity="1.0" stroke-width="1.0"><path d="M 169.3500,-297.7000 C 205.01,-299.5400 261.99,-302.53 311.24,-305.26 C 364.3,-308.2 425.7400,-311.8 463.7000,-314.0500"/></g><g fill="rgb(0%, 0%, 0%)" fill-opacity="0" stroke="rgb(-51%, 30%, 37%)" stroke-opacity="1.0" stroke-width="1.0"><path d="M 161.19,-277.57 C 172.23,-268.54 184.05,-256.68 190.96,-243.1900 C 193.59,-238.0300 188.79,-234.63 192.6,-230.26 C 215.42,-204.11 314.88,-186.5600 367.21,-178.96"/></g><g fill="rgb(0%, 0%, 0%)" fill-opacity="0" stroke="rgb(-51%, 30%, 37%)" stroke-opacity="1.0" stroke-width="1.0"><path d="M 169.25,-305.74 C 171.85,-306.4700 174.51,-307.2300 177.2100,-307.9900"/></g><g fill="rgb(0%, 0%, 0%)" fill-opacity="0" stroke="rgb(-51%, 30%, 37%)" stroke-opacity="1.0" stroke-width="1.0"><path d="M 182.31,-139.24 C 201.8,-152.44 229.86,-169.52 256.97,-179.14 C 337.27,-207.64 438.18,-215.9 489.8000,-218.29"/></g><g fill="rgb(0%, 0%, 0%)" fill-opacity="0" stroke="rgb(-51%, 30%, 37%)" stroke-opacity="1.0" stroke-width="1.0"><path d="M 360.21,-40.023 C 357.9100,-72.048 354.85,-139.7800 364.46,-195.88 C 367.18,-211.77 373.18,-214.3900 376.0,-230.26 C 380.85,-257.58 373.25,-265.29 377.72,-292.67 C 380.29,-308.3400 385.69,-325.52 390.16,-338.11"/></g><g fill="rgb(0%, 0%, 0%)" fill-opacity="0" stroke="rgb(-51%, 30%, 37%)" stroke-opacity="1.0" stroke-width="1.0"><path d="M 307.52,-392.1600 C 342.81,-389.3600 387.81,-384.7900 427.42,-377.71 C 469.57,-370.18 517.44,-356.87 546.65,-348.2"/></g><g fill="rgb(0%, 0%, 0%)" fill-opacity="0" stroke="rgb(-51%, 30%, 37%)" stroke-opacity="1.0" stroke-width="1.0"><path d="M 307.41,-379.96 C 329.18,-374.28 352.58,-368.17 370.03,-363.61"/></g><g fill="rgb(0%, 0%, 0%)" fill-opacity="0" stroke="rgb(-51%, 30%, 37%)" stroke-opacity="1.0" stroke-width="1.0"><path d="M 275.5700,-377.73 C 299.4300,-363.9000 334.23,-345.5900 367.02,-335.31 C 398.7,-325.38 436.27,-320.59 463.36,-318.2900"/></g><g fill="rgb(0%, 0%, 0%)" fill-opacity="0" stroke="rgb(-51%, 30%, 37%)" stroke-opacity="1.0" stroke-width="1.0"><path d="M 262.56,-414.4 C 283.01,-436.8500 317.43,-474.6200 337.81,-496.9900"/></g><g fill="rgb(0%, 0%, 0%)" fill-opacity="0" stroke="rgb(-51%, 30%, 37%)" stroke-opacity="1.0" stroke-width="1.0"><path d="M 275.18,-232.96 C 268.66,-218.6600 260.44,-198.15 256.97,-179.14 C 253.59,-160.6 245.44,-151.64 256.97,-136.74 C 258.85,-134.3 261.7900,-137.4300 263.68,-135.0 C 275.2100,-120.0900 265.4500,-111.3600 263.68,-92.597 C 263.0,-85.456 261.6600,-77.6890 260.28,-70.9290"/></g><g fill="rgb(0%, 0%, 0%)" fill-opacity="0" stroke="rgb(-51%, 30%, 37%)" stroke-opacity="1.0" stroke-width="1.0"><path d="M 303.97,-269.76 C 324.57,-288.92 356.74,-318.85 377.4000,-338.07"/></g><g fill="rgb(0%, 0%, 0%)" fill-opacity="0" stroke="rgb(-51%, 30%, 37%)" stroke-opacity="1.0" stroke-width="1.0"><path d="M 323.08,-269.94 C 366.62,-291.87 437.9000,-331.43 489.49,-378.3500 C 510.81,-397.75 507.45,-411.7400 531.31,-427.9100 C 568.46,-453.09 588.97,-436.1700 627.11,-459.81 C 633.11,-463.5300 638.83,-468.59 643.72,-473.5900"/></g><g fill="rgb(0%, 0%, 0%)" fill-opacity="0" stroke="rgb(-51%, 30%, 37%)" stroke-opacity="1.0" stroke-width="1.0"><path d="M 284.86,-232.99 C 285.37,-216.5900 286.1,-192.76 286.6,-176.38"/></g><g fill="rgb(0%, 0%, 0%)" fill-opacity="0" stroke="rgb(-51%, 30%, 37%)" stroke-opacity="1.0" stroke-width="1.0"><path d="M 296.97,-269.6 C 309.21,-289.53 324.13,-322.1100 311.24,-347.66 C 305.01,-360.0200 293.97,-370.01 282.71,-377.63"/></g><g fill="rgb(0%, 0%, 0%)" fill-opacity="0" stroke="rgb(-51%, 30%, 37%)" stroke-opacity="1.0" stroke-width="1.0"><path d="M 274.1900,-269.62 C 267.6700,-281.32 259.23,-296.49 252.7,-308.2100"/></g><g fill="rgb(0%, 0%, 0%)" fill-opacity="0" stroke="rgb(-51%, 30%, 37%)" stroke-opacity="1.0" stroke-width="1.0"><path d="M 501.09,-580.49 C 493.6300,-568.6200 483.93,-552.7100 476.0900,-538.21 C 467.68,-522.64 459.1,-504.4300 453.08,-491.22"/></g><g fill="rgb(0%, 0%, 0%)" fill-opacity="0" stroke="rgb(-51%, 30%, 37%)" stroke-opacity="1.0" stroke-width="1.0"><path d="M 526.64,-580.52 C 534.44,-569.04 543.4200,-553.54 547.49,-538.21 C 552.34,-520.0 549.69,-514.53 547.49,-495.81 C 543.87,-465.0 534.93,-458.7200 531.31,-427.9100 C 529.11,-409.1900 524.4,-403.0400 531.31,-385.5100 C 535.44,-375.0100 543.25,-365.5000 551.06,-357.91"/></g><g fill="rgb(0%, 0%, 0%)" fill-opacity="0" stroke="rgb(-51%, 30%, 37%)" stroke-opacity="1.0" stroke-width="1.0"><path d="M 482.93,-580.37 C 456.3700,-562.1600 419.21,-531.61 402.27,-494.1700 C 384.43,-454.74 389.29,-402.2500 393.67,-374.88"/></g><g fill="rgb(0%, 0%, 0%)" fill-opacity="0" stroke="rgb(-51%, 30%, 37%)" stroke-opacity="1.0" stroke-width="1.0"><path d="M 562.19,-609.4600 C 567.79,-610.6700 573.41,-611.89 578.75,-613.05"/></g><g fill="rgb(0%, 0%, 0%)" fill-opacity="0" stroke="rgb(-51%, 30%, 37%)" stroke-opacity="1.0" stroke-width="1.0"><path d="M 526.64,-580.52 C 534.44,-569.04 543.4200,-553.54 547.49,-538.21 C 552.34,-520.0 549.9300,-514.5 547.49,-495.81 C 545.39,-479.66 516.95,-377.17 505.04,-334.6500"/></g><g fill="rgb(0%, 0%, 0%)" fill-opacity="0" stroke="rgb(-51%, 30%, 37%)" stroke-opacity="1.0" stroke-width="1.0"><path d="M 463.4,-600.4100 C 419.99,-602.49 355.29,-607.1200 299.78,-617.32 C 298.31,-617.59 296.82,-617.8900 295.3100,-618.2000"/></g><g fill="rgb(0%, 0%, 0%)" fill-opacity="0" stroke="rgb(-51%, 30%, 37%)" stroke-opacity="1.0" stroke-width="1.0"><path d="M 531.08,-617.07 C 540.17,-626.1900 551.12,-637.18 560.19,-646.29"/></g><g fill="rgb(0%, 0%, 0%)" fill-opacity="0" stroke="rgb(-51%, 30%, 37%)" stroke-opacity="1.0" stroke-width="1.0"><path d="M 463.36,-587.9 C 432.2700,-581.07 393.33,-572.52 367.65,-566.89"/></g><g fill="rgb(0%, 0%, 0%)" fill-opacity="0" stroke="rgb(-51%, 30%, 37%)" stroke-opacity="1.0" stroke-width="1.0"><path d="M 512.61,-580.62 C 512.44,-567.17 512.2,-548.89 512.03,-535.39"/></g><g fill="rgb(0%, 0%, 0%)" fill-opacity="0" stroke="rgb(-51%, 30%, 37%)" stroke-opacity="1.0" stroke-width="1.0"><path d="M 492.1000,-616.9500 C 476.1800,-630.91 454.28,-650.1 438.28,-664.1200"/></g><g fill="rgb(0%, 0%, 0%)" fill-opacity="0" stroke="rgb(-51%, 30%, 37%)" stroke-opacity="1.0" stroke-width="1.0"><path d="M 508.2700,-617.03 C 504.74,-631.15 499.88,-650.6000 496.35,-664.7100"/></g><g fill="rgb(0%, 0%, 0%)" fill-opacity="0" stroke="rgb(-51%, 30%, 37%)" stroke-opacity="1.0" stroke-width="1.0"><path d="M 549.68,-580.34 C 554.4,-577.98 559.22,-575.57 563.94,-573.21"/></g><g fill="rgb(0%, 0%, 0%)" fill-opacity="0" stroke="rgb(-51%, 30%, 37%)" stroke-opacity="1.0" stroke-width="1.0"><path d="M 524.44,-580.37 C 531.6,-568.58 540.69,-552.81 547.49,-538.21 C 548.43,-536.2 547.6600,-535.1 549.22,-533.52 C 555.28,-527.4 601.16,-511.2 631.65,-500.89"/></g><g fill="rgb(0%, 0%, 0%)" fill-opacity="0" stroke="rgb(-51%, 30%, 37%)" stroke-opacity="1.0" stroke-width="1.0"><path d="M 478.0600,-580.4200 C 451.73,-566.5300 415.72,-547.5300 389.34,-533.61"/></g><g fill="rgb(0%, 0%, 0%)" fill-opacity="0" stroke="rgb(-51%, 30%, 37%)" stroke-opacity="1.0" stroke-width="1.0"><path d="M 463.5600,-612.3300 C 454.17,-614.92 444.2,-617.67 434.39,-620.37"/></g><g fill="rgb(0%, 0%, 0%)" fill-opacity="0" stroke="rgb(-51%, 30%, 37%)" stroke-opacity="1.0" stroke-width="1.0"><path d="M 648.54,-274.3 C 664.58,-292.8200 690.03,-322.35 711.77,-348.13 C 722.68,-361.0700 734.86,-375.7700 744.15,-387.0500"/></g><g fill="rgb(0%, 0%, 0%)" fill-opacity="0" stroke="rgb(-51%, 30%, 37%)" stroke-opacity="1.0" stroke-width="1.0"><path d="M 605.33,-264.66 C 577.04,-273.2 531.44,-285.96 491.12,-292.67 C 484.43,-293.78 466.85,-292.2200 460.66,-295.0100 C 439.82,-304.3900 421.75,-323.69 410.28,-338.1800"/></g><g fill="rgb(0%, 0%, 0%)" fill-opacity="0" stroke="rgb(-51%, 30%, 37%)" stroke-opacity="1.0" stroke-width="1.0"><path d="M 656.24,-237.73 C 665.71,-230.3600 676.61,-221.8800 686.1,-214.5100"/></g><g fill="rgb(0%, 0%, 0%)" fill-opacity="0" stroke="rgb(-51%, 30%, 37%)" stroke-opacity="1.0" stroke-width="1.0"><path d="M 626.03,-237.6500 C 618.43,-216.65 606.06,-182.51 598.45,-161.52"/></g><g fill="rgb(0%, 0%, 0%)" fill-opacity="0" stroke="rgb(-51%, 30%, 37%)" stroke-opacity="1.0" stroke-width="1.0"><path d="M 612.04,-237.57 C 598.02,-225.53 578.75,-209.9100 560.3400,-198.0700 C 541.0700,-185.6800 517.99,-174.08 499.95,-165.66"/></g><g fill="rgb(0%, 0%, 0%)" fill-opacity="0" stroke="rgb(-51%, 30%, 37%)" stroke-opacity="1.0" stroke-width="1.0"><path d="M 615.47,-237.7700 C 601.83,-224.5 581.6,-207.31 560.3400,-198.0700 C 518.5900,-179.92 465.57,-175.36 432.11,-174.47"/></g><g fill="rgb(0%, 0%, 0%)" fill-opacity="0" stroke="rgb(-51%, 30%, 37%)" stroke-opacity="1.0" stroke-width="1.0"><path d="M 609.52,-237.7900 C 590.29,-221.05 564.33,-194.3500 553.1,-164.34 C 546.28,-146.13 547.41,-123.63 549.51,-108.11"/></g><g fill="rgb(0%, 0%, 0%)" fill-opacity="0" stroke="rgb(-51%, 30%, 37%)" stroke-opacity="1.0" stroke-width="1.0"><path d="M 634.7,-237.5500 C 637.01,-211.43 639.45,-162.4100 630.5,-121.9400 C 630.18,-120.5 629.76,-119.0400 629.29,-117.5900"/></g><g fill="rgb(0%, 0%, 0%)" fill-opacity="0" stroke="rgb(-51%, 30%, 37%)" stroke-opacity="1.0" stroke-width="1.0"><path d="M 605.33,-268.61 C 585.32,-279.18 559.0900,-296.1800 543.72,-318.61 C 538.86,-325.71 542.33,-329.45 539.06,-337.4100 C 522.68,-377.2700 522.79,-393.39 489.49,-420.7500 C 457.7100,-446.8800 435.45,-427.44 402.27,-451.7700 C 386.03,-463.68 372.74,-482.6300 364.31,-496.7100"/></g><g fill="rgb(0%, 0%, 0%)" fill-opacity="0" stroke="rgb(-51%, 30%, 37%)" stroke-opacity="1.0" stroke-width="1.0"><path d="M 605.46,-246.85 C 590.95,-241.96 572.96,-235.9 557.55,-230.7000"/></g><g fill="rgb(0%, 0%, 0%)" fill-opacity="0" stroke="rgb(-51%, 30%, 37%)" stroke-opacity="1.0" stroke-width="1.0"><path d="M 426.35,-289.92 C 420.1100,-304.19 411.51,-323.84 405.2800,-338.09"/></g><g fill="rgb(0%, 0%, 0%)" fill-opacity="0" stroke="rgb(-51%, 30%, 37%)" stroke-opacity="1.0" stroke-width="1.0"><path d="M 416.7800,-253.1800 C 402.39,-238.0800 381.7,-215.9500 364.46,-195.88 C 342.57,-170.39 347.11,-152.37 317.37,-136.74 C 312.75,-134.31 299.0600,-136.16 293.95,-135.1000 C 282.8300,-132.8000 270.97,-128.95 260.73,-125.1500"/></g><g fill="rgb(0%, 0%, 0%)" fill-opacity="0" stroke="rgb(-51%, 30%, 37%)" stroke-opacity="1.0" stroke-width="1.0"><path d="M 435.0000,-253.38 C 435.89,-222.69 437.28,-162.85 434.8600,-153.4800 C 423.4600,-109.3600 393.79,-64.257 375.95,-39.89"/></g><g fill="rgb(0%, 0%, 0%)" fill-opacity="0" stroke="rgb(-51%, 30%, 37%)" stroke-opacity="1.0" stroke-width="1.0"><path d="M 465.88,-253.0700 C 474.41,-248.0800 483.64,-242.6700 492.17,-237.6800"/></g><g fill="rgb(0%, 0%, 0%)" fill-opacity="0" stroke="rgb(-51%, 30%, 37%)" stroke-opacity="1.0" stroke-width="1.0"><path d="M 617.37,-367.12 C 561.8500,-364.4500 469.97,-360.0200 424.48,-357.8200"/></g><g fill="rgb(0%, 0%, 0%)" fill-opacity="0" stroke="rgb(-51%, 30%, 37%)" stroke-opacity="1.0" stroke-width="1.0"><path d="M 647.89,-350.94 C 637.06,-339.3 621.39,-325.25 604.12,-318.61 C 582.65,-310.37 556.83,-309.71 536.25,-311.14"/></g><g fill="rgb(0%, 0%, 0%)" fill-opacity="0" stroke="rgb(-51%, 30%, 37%)" stroke-opacity="1.0" stroke-width="1.0"><path d="M 645.97,-350.93 C 619.07,-321.97 567.16,-266.11 540.44,-237.35"/></g><g fill="rgb(0%, 0%, 0%)" fill-opacity="0" stroke="rgb(-51%, 30%, 37%)" stroke-opacity="1.0" stroke-width="1.0"><path d="M 645.3,-351.0 C 634.24,-340.41 619.27,-327.47 604.12,-318.61 C 568.36,-297.69 522.91,-285.71 488.05,-279.07"/></g><g fill="rgb(0%, 0%, 0%)" fill-opacity="0" stroke="rgb(-51%, 30%, 37%)" stroke-opacity="1.0" stroke-width="1.0"><path d="M 149.48,-532.44 C 201.6,-495.4300 319.13,-411.9600 371.36,-374.87"/></g><g fill="rgb(0%, 0%, 0%)" fill-opacity="0" stroke="rgb(-51%, 30%, 37%)" stroke-opacity="1.0" stroke-width="1.0"><path d="M 181.0200,-561.3900 C 190.09,-563.08 199.09,-564.7600 207.04,-566.25"/></g><g fill="rgb(0%, 0%, 0%)" fill-opacity="0" stroke="rgb(-51%, 30%, 37%)" stroke-opacity="1.0" stroke-width="1.0"><path d="M 181.06,-541.8800 C 221.34,-535.67 274.4,-527.49 311.15,-521.83"/></g><g fill="rgb(0%, 0%, 0%)" fill-opacity="0" stroke="rgb(-51%, 30%, 37%)" stroke-opacity="1.0" stroke-width="1.0"><path d="M 181.24,-558.74 C 189.23,-562.1500 196.59,-566.92 202.14,-573.54 C 207.6,-580.05 198.42,-586.32 204.2,-592.55 C 233.08,-623.7 257.4,-598.04 298.17,-609.9700 C 307.6600,-612.74 317.62,-616.34 326.96,-620.04"/></g><g fill="rgb(0%, 0%, 0%)" fill-opacity="0" stroke="rgb(-51%, 30%, 37%)" stroke-opacity="1.0" stroke-width="1.0"><path d="M 376.15,-620.1 C 384.08,-599.95 395.95,-566.5 400.58,-536.37 C 402.97,-520.74 399.48,-417.3 397.91,-374.7500"/></g><g fill="rgb(0%, 0%, 0%)" fill-opacity="0" stroke="rgb(-51%, 30%, 37%)" stroke-opacity="1.0" stroke-width="1.0"><path d="M 372.1,-620.21 C 375.34,-600.03 378.47,-566.8000 370.38,-539.66 C 369.77,-537.61 368.93,-535.58 367.96,-533.61"/></g><g fill="rgb(0%, 0%, 0%)" fill-opacity="0" stroke="rgb(-51%, 30%, 37%)" stroke-opacity="1.0" stroke-width="1.0"><path d="M 722.05,-314.0 C 690.03,-318.0900 646.84,-327.31 614.37,-348.13 C 608.21,-352.0800 610.71,-357.83 604.12,-361.01 C 579.94,-372.6700 570.56,-361.4300 543.72,-361.01 C 502.12,-360.3700 453.9000,-358.71 424.4900,-357.6"/></g><g fill="rgb(0%, 0%, 0%)" fill-opacity="0" stroke="rgb(-51%, 30%, 37%)" stroke-opacity="1.0" stroke-width="1.0"><path d="M 308.14,-339.2 C 329.88,-343.4300 352.88,-347.9000 370.07,-351.23"/></g><g fill="rgb(0%, 0%, 0%)" fill-opacity="0" stroke="rgb(-51%, 30%, 37%)" stroke-opacity="1.0" stroke-width="1.0"><path d="M 308.4500,-315.24 C 333.57,-307.52 359.98,-294.53 376.0,-272.66 C 378.95,-268.64 375.58,-254.78 377.72,-250.2700 C 392.77,-218.6 411.1500,-221.7100 434.8600,-195.88 C 442.1900,-187.89 449.7800,-178.5500 455.99,-170.5800"/></g><g fill="rgb(0%, 0%, 0%)" fill-opacity="0" stroke="rgb(-51%, 30%, 37%)" stroke-opacity="1.0" stroke-width="1.0"><path d="M 308.4500,-315.24 C 333.57,-307.52 359.98,-294.53 376.0,-272.66 C 378.95,-268.64 376.83,-255.18 377.72,-250.2700 C 381.34,-230.37 388.1,-208.21 393.17,-193.06"/></g><g fill="rgb(0%, 0%, 0%)" fill-opacity="0" stroke="rgb(-51%, 30%, 37%)" stroke-opacity="1.0" stroke-width="1.0"><path d="M 306.97,-307.9900 C 330.92,-301.13 357.82,-293.42 380.72,-286.86"/></g><g fill="rgb(0%, 0%, 0%)" fill-opacity="0" stroke="rgb(-51%, 30%, 37%)" stroke-opacity="1.0" stroke-width="1.0"><path d="M 425.2500,-36.341 C 419.5,-39.917 414.07,-44.077 409.53,-48.8710 C 374.76,-85.6610 374.69,-103.9000 364.46,-153.4800 C 360.65,-171.9300 361.42,-177.28 364.46,-195.88 C 367.06,-211.79 373.18,-214.3900 376.0,-230.26 C 380.85,-257.58 373.25,-265.29 377.72,-292.67 C 380.29,-308.3400 385.69,-325.52 390.16,-338.11"/></g><g fill="rgb(0%, 0%, 0%)" fill-opacity="0" stroke="rgb(-51%, 30%, 37%)" stroke-opacity="1.0" stroke-width="1.0"><path d="M 488.3500,-36.2640 C 491.2700,-40.191 493.99,-44.4860 495.93,-48.8710 C 518.8700,-100.67 523.04,-168.8600 523.65,-201.01"/></g></g><g class="shapes"><g fill="rgb(2%, 73%, 80%)" fill-opacity="0.2" stroke="rgb(-51%, 30%, 37%)" stroke-opacity="1.0" stroke-width="1.0"><rect height="36.0" width="70.9999" x="220.5800" y="-70.8090"/></g><g fill="rgb(2%, 73%, 80%)" fill-opacity="0.2" stroke="rgb(-51%, 30%, 37%)" stroke-opacity="1.0" stroke-width="1.0"><rect height="36.0" width="61.9999" x="220.1000" y="-704.68"/></g><g fill="rgb(2%, 73%, 80%)" fill-opacity="0.2" stroke="rgb(-51%, 30%, 37%)" stroke-opacity="1.0" stroke-width="1.0"><rect height="36.0" width="78.9984" x="405.4708" y="-490.97"/></g><g fill="rgb(2%, 73%, 80%)" fill-opacity="0.2" stroke="rgb(-51%, 30%, 37%)" stroke-opacity="1.0" stroke-width="1.0"><rect height="36.0" width="54.0" x="546.92" y="-357.81"/></g><g fill="rgb(2%, 73%, 80%)" fill-opacity="0.2" stroke="rgb(-51%, 30%, 37%)" stroke-opacity="1.0" stroke-width="1.0"><rect height="36.0" width="54.0" x="732.25" y="-423.44"/></g><g fill="rgb(2%, 73%, 80%)" fill-opacity="0.2" stroke="rgb(-51%, 30%, 37%)" stroke-opacity="1.0" stroke-width="1.0"><rect height="36.0" width="54.0" x="370.22" y="-374.5100"/></g><g fill="rgb(2%, 73%, 80%)" fill-opacity="0.2" stroke="rgb(-51%, 30%, 37%)" stroke-opacity="1.0" stroke-width="1.0"><rect height="36.0" width="70.9999" x="552.9100" y="-499.0100"/></g><g fill="rgb(2%, 73%, 80%)" fill-opacity="0.2" stroke="rgb(-51%, 30%, 37%)" stroke-opacity="1.0" stroke-width="1.0"><rect height="36.0" width="54.0" x="682.76" y="-214.1"/></g><g fill="rgb(2%, 73%, 80%)" fill-opacity="0.2" stroke="rgb(-51%, 30%, 37%)" stroke-opacity="1.0" stroke-width="1.0"><rect height="36.0" width="70.9999" x="556.3000" y="-161.1400"/></g><g fill="rgb(2%, 73%, 80%)" fill-opacity="0.2" stroke="rgb(-51%, 30%, 37%)" stroke-opacity="1.0" stroke-width="1.0"><rect height="36.0" width="67.0003" x="579.2098" y="-638.41"/></g><g fill="rgb(2%, 73%, 80%)" fill-opacity="0.2" stroke="rgb(-51%, 30%, 37%)" stroke-opacity="1.0" stroke-width="1.0"><rect height="36.0" width="75.0024" x="534.5088" y="-424.71"/></g><g fill="rgb(2%, 73%, 80%)" fill-opacity="0.2" stroke="rgb(-51%, 30%, 37%)" stroke-opacity="1.0" stroke-width="1.0"><rect height="36.0" width="36.0000" x="481.8600" y="-334.21"/></g><g fill="rgb(2%, 73%, 80%)" fill-opacity="0.2" stroke="rgb(-51%, 30%, 37%)" stroke-opacity="1.0" stroke-width="1.0"><rect height="36.0" width="87.9984" x="206.9708" y="-649.17"/></g><g fill="rgb(2%, 73%, 80%)" fill-opacity="0.2" stroke="rgb(-51%, 30%, 37%)" stroke-opacity="1.0" stroke-width="1.0"><rect height="36.0" width="59.9998" x="439.7001" y="-170.3400"/></g><g fill="rgb(2%, 73%, 80%)" fill-opacity="0.2" stroke="rgb(-51%, 30%, 37%)" stroke-opacity="1.0" stroke-width="1.0"><rect height="36.0" width="77.9976" x="539.3312" y="-682.5"/></g><g fill="rgb(2%, 73%, 80%)" fill-opacity="0.2" stroke="rgb(-51%, 30%, 37%)" stroke-opacity="1.0" stroke-width="1.0"><rect height="36.0" width="74.0016" x="145.9092" y="-458.08"/></g><g fill="rgb(2%, 73%, 80%)" fill-opacity="0.2" stroke="rgb(-51%, 30%, 37%)" stroke-opacity="1.0" stroke-width="1.0"><rect height="36.0" width="57.0002" x="297.1499" y="-131.9"/></g><g fill="rgb(2%, 73%, 80%)" fill-opacity="0.2" stroke="rgb(-51%, 30%, 37%)" stroke-opacity="1.0" stroke-width="1.0"><rect height="36.0" width="54.0" x="249.2300" y="-507.11"/></g><g fill="rgb(2%, 73%, 80%)" fill-opacity="0.2" stroke="rgb(-51%, 30%, 37%)" stroke-opacity="1.0" stroke-width="1.0"><rect height="36.0" width="54.0" x="313.18" y="-578.86"/></g><g fill="rgb(2%, 73%, 80%)" fill-opacity="0.2" stroke="rgb(-51%, 30%, 37%)" stroke-opacity="1.0" stroke-width="1.0"><rect height="36.0" width="64.0001" x="367.6600" y="-192.68"/></g><g fill="rgb(2%, 73%, 80%)" fill-opacity="0.2" stroke="rgb(-51%, 30%, 37%)" stroke-opacity="1.0" stroke-width="1.0"><rect height="36.0" width="65.0002" x="479.2899" y="-535.01"/></g><g fill="rgb(2%, 73%, 80%)" fill-opacity="0.2" stroke="rgb(-51%, 30%, 37%)" stroke-opacity="1.0" stroke-width="1.0"><rect height="36.0" width="54.0" x="432.29" y="-417.55"/></g><g fill="rgb(2%, 73%, 80%)" fill-opacity="0.2" stroke="rgb(-51%, 30%, 37%)" stroke-opacity="1.0" stroke-width="1.0"><rect height="36.0" width="54.0" x="390.25" y="-700.5600"/></g><g fill="rgb(2%, 73%, 80%)" fill-opacity="0.2" stroke="rgb(-51%, 30%, 37%)" stroke-opacity="1.0" stroke-width="1.0"><rect height="36.0" width="57.0002" x="673.6499" y="-273.01"/></g><g fill="rgb(2%, 73%, 80%)" fill-opacity="0.2" stroke="rgb(-51%, 30%, 37%)" stroke-opacity="1.0" stroke-width="1.0"><rect height="36.0" width="57.0002" x="32.3829" y="-368.5200"/></g><g fill="rgb(2%, 73%, 80%)" fill-opacity="0.2" stroke="rgb(-51%, 30%, 37%)" stroke-opacity="1.0" stroke-width="1.0"><rect height="36.0000" width="54.0000" x="206.48" y="-131.8"/></g><g fill="rgb(2%, 73%, 80%)" fill-opacity="0.2" stroke="rgb(-51%, 30%, 37%)" stroke-opacity="1.0" stroke-width="1.0"><rect height="36.0" width="67.0003" x="120.7598" y="-239.9900"/></g><g fill="rgb(2%, 73%, 80%)" fill-opacity="0.2" stroke="rgb(-51%, 30%, 37%)" stroke-opacity="1.0" stroke-width="1.0"><rect height="36.0" width="78.9984" x="452.2908" y="-700.9400"/></g><g fill="rgb(2%, 73%, 80%)" fill-opacity="0.2" stroke="rgb(-51%, 30%, 37%)" stroke-opacity="1.0" stroke-width="1.0"><rect height="36.0" width="67.9997" x="130.9402" y="-612.74"/></g><g fill="rgb(2%, 73%, 80%)" fill-opacity="0.2" stroke="rgb(-51%, 30%, 37%)" stroke-opacity="1.0" stroke-width="1.0"><rect height="36.0" width="96.9984" x="552.4208" y="-572.72"/></g><g fill="rgb(2%, 73%, 80%)" fill-opacity="0.2" stroke="rgb(-51%, 30%, 37%)" stroke-opacity="1.0" stroke-width="1.0"><rect height="36.0" width="79.9992" x="412.7304" y="-88.0710"/></g><g fill="rgb(2%, 73%, 80%)" fill-opacity="0.2" stroke="rgb(-51%, 30%, 37%)" stroke-opacity="1.0" stroke-width="1.0"><rect height="36.0" width="54.0000" x="207.4" y="-589.35"/></g><g fill="rgb(2%, 73%, 80%)" fill-opacity="0.2" stroke="rgb(-51%, 30%, 37%)" stroke-opacity="1.0" stroke-width="1.0"><rect height="36.0" width="54.0" x="631.96" y="-509.8400"/></g><g fill="rgb(2%, 73%, 80%)" fill-opacity="0.2" stroke="rgb(-51%, 30%, 37%)" stroke-opacity="1.0" stroke-width="1.0"><rect height="36.0" width="54.0" x="525.97" y="-107.6780"/></g><g fill="rgb(2%, 73%, 80%)" fill-opacity="0.2" stroke="rgb(-51%, 30%, 37%)" stroke-opacity="1.0" stroke-width="1.0"><rect height="36.0" width="54.0" x="593.34" y="-117.1320"/></g><g fill="rgb(2%, 73%, 80%)" fill-opacity="0.2" stroke="rgb(-51%, 30%, 37%)" stroke-opacity="1.0" stroke-width="1.0"><rect height="36.0" width="85.9968" x="311.3816" y="-533.17"/></g><g fill="rgb(2%, 73%, 80%)" fill-opacity="0.2" stroke="rgb(-51%, 30%, 37%)" stroke-opacity="1.0" stroke-width="1.0"><rect height="36.0" width="54.0" x="260.17" y="-175.94"/></g><g fill="rgb(2%, 73%, 80%)" fill-opacity="0.2" stroke="rgb(-51%, 30%, 37%)" stroke-opacity="1.0" stroke-width="1.0"><rect height="36.0" width="54.0" x="80.4500" y="-452.5100"/></g><g fill="rgb(2%, 73%, 80%)" fill-opacity="0.2" stroke="rgb(-51%, 30%, 37%)" stroke-opacity="1.0" stroke-width="1.0"><rect height="36.0" width="87.9984" x="694.0208" y="-537.11"/></g><g fill="rgb(2%, 73%, 80%)" fill-opacity="0.2" stroke="rgb(-51%, 30%, 37%)" stroke-opacity="1.0" stroke-width="1.0"><rect height="36.0" width="67.9997" x="44.7142" y="-265.82"/></g><g fill="rgb(2%, 73%, 80%)" fill-opacity="0.2" stroke="rgb(-51%, 30%, 37%)" stroke-opacity="1.0" stroke-width="1.0"><rect height="36.0" width="112.0032" x="-0.0016" y="-496.5500"/></g><g fill="rgb(2%, 73%, 80%)" fill-opacity="0.2" stroke="rgb(-51%, 30%, 37%)" stroke-opacity="1.0" stroke-width="1.0"><rect height="36.0" width="68.9998" x="99.9601" y="-313.91"/></g><g fill="rgb(2%, 73%, 80%)" fill-opacity="0.2" stroke="rgb(-51%, 30%, 37%)" stroke-opacity="1.0" stroke-width="1.0"><rect height="36.0000" width="83.0016" x="115.3592" y="-138.8"/></g><g fill="rgb(2%, 73%, 80%)" fill-opacity="0.2" stroke="rgb(-51%, 30%, 37%)" stroke-opacity="1.0" stroke-width="1.0"><rect height="36.0" width="79.9992" x="321.7704" y="-39.528"/></g><g fill="rgb(2%, 73%, 80%)" fill-opacity="0.2" stroke="rgb(-51%, 30%, 37%)" stroke-opacity="1.0" stroke-width="1.0"><rect height="36.0" width="67.0003" x="490.1398" y="-237.2700"/></g><g fill="rgb(2%, 73%, 80%)" fill-opacity="0.2" stroke="rgb(-51%, 30%, 37%)" stroke-opacity="1.0" stroke-width="1.0"><rect height="36.0" width="122.9976" x="184.3412" y="-414.0500"/></g><g fill="rgb(2%, 73%, 80%)" fill-opacity="0.2" stroke="rgb(-51%, 30%, 37%)" stroke-opacity="1.0" stroke-width="1.0"><rect height="36.0000" width="176.9976" x="195.8012" y="-269.4600"/></g><g fill="rgb(2%, 73%, 80%)" fill-opacity="0.2" stroke="rgb(-51%, 30%, 37%)" stroke-opacity="1.0" stroke-width="1.0"><rect height="36.0" width="97.9992" x="463.8404" y="-616.76"/></g><g fill="rgb(2%, 73%, 80%)" fill-opacity="0.2" stroke="rgb(-51%, 30%, 37%)" stroke-opacity="1.0" stroke-width="1.0"><rect height="36.0" width="54.0" x="605.69" y="-274.04"/></g><g fill="rgb(2%, 73%, 80%)" fill-opacity="0.2" stroke="rgb(-51%, 30%, 37%)" stroke-opacity="1.0" stroke-width="1.0"><rect height="36.0" width="106.9992" x="380.9204" y="-289.47"/></g><g fill="rgb(2%, 73%, 80%)" fill-opacity="0.2" stroke="rgb(-51%, 30%, 37%)" stroke-opacity="1.0" stroke-width="1.0"><rect height="36.0" width="91.0008" x="617.5696" y="-387.3300"/></g><g fill="rgb(2%, 73%, 80%)" fill-opacity="0.2" stroke="rgb(-51%, 30%, 37%)" stroke-opacity="1.0" stroke-width="1.0"><rect height="36.0" width="113.9976" x="66.7512" y="-568.7100"/></g><g fill="rgb(2%, 73%, 80%)" fill-opacity="0.2" stroke="rgb(-51%, 30%, 37%)" stroke-opacity="1.0" stroke-width="1.0"><rect height="36.0" width="130.9968" x="302.9816" y="-656.52"/></g><g fill="rgb(2%, 73%, 80%)" fill-opacity="0.2" stroke="rgb(-51%, 30%, 37%)" stroke-opacity="1.0" stroke-width="1.0"><rect height="36.0" width="87.9984" x="722.2808" y="-328.74"/></g><g fill="rgb(2%, 73%, 80%)" fill-opacity="0.2" stroke="rgb(-51%, 30%, 37%)" stroke-opacity="1.0" stroke-width="1.0"><rect height="36.0" width="130.9968" x="177.0416" y="-344.4600"/></g><g fill="rgb(2%, 73%, 80%)" fill-opacity="0.2" stroke="rgb(-51%, 30%, 37%)" stroke-opacity="1.0" stroke-width="1.0"><rect height="36.0" width="92.0016" x="425.3492" y="-36.0"/></g></g><g class="labels"><g fill="rgb(-51%, 30%, 37%)" fill-opacity="1.0" font-size="14.0" stroke="none" stroke-width="0.0" text-anchor="middle"><text x="256.08" y="-49.1090">OneTuple</text><text x="251.1000" y="-682.9800">StateVar</text><text x="444.97" y="-469.2700">adjunctions</text><text x="573.92" y="-336.1100">array</text><text x="759.25" y="-401.7400">assoc</text><text x="397.22" y="-352.81">base</text><text x="588.41" y="-477.31">bifunctors</text><text x="709.76" y="-192.4">binary</text><text x="591.8" y="-139.44">bytestring</text><text x="612.71" y="-616.7100">comonad</text><text x="572.01" y="-403.0100">constraints</text><text x="499.8600" y="-312.51">containers</text><text x="250.9700" y="-627.4700">contravariant</text><text x="469.7000" y="-148.6400">deepseq</text><text x="578.33" y="-660.8000">distributive</text><text x="182.91" y="-436.3800">exceptions</text><text x="325.65" y="-110.2000">filepath</text><text x="276.23" y="-485.4100">folds</text><text x="340.18" y="-557.16">free</text><text x="399.6600" y="-170.9800">hashable</text><text x="511.79" y="-513.31">invariant</text><text x="459.29" y="-395.8500">lens</text><text x="417.25" y="-678.8600">mtl</text><text x="702.15" y="-251.31">parallel</text><text x="60.883" y="-346.82">pointed</text><text x="233.48" y="-110.1">pretty</text><text x="154.26" y="-218.2900">primitive</text><text x="491.7900" y="-679.24">profunctors</text><text x="164.94" y="-591.04">reflection</text><text x="600.92" y="-551.02">semigroupoids</text><text x="452.73" y="-66.3710">semigroups</text><text x="234.4" y="-567.65">stm</text><text x="658.96" y="-488.14">tagged</text><text x="552.97" y="-85.9780">text</text><text x="620.34" y="-95.432">these</text><text x="354.38" y="-511.4700">transformers</text><text x="287.17" y="-154.24">vector</text><text x="107.4500" y="-430.81">void</text><text x="738.02" y="-515.41">base-orphans</text><text x="78.714" y="-244.12">call-stack</text><text x="56.0" y="-474.8500">data-default-class</text><text x="134.46" y="-292.2100">data-reify</text><text x="156.86" y="-117.1">ghc-bignum</text><text x="361.77" y="-17.828">ghc-boot-th</text><text x="523.6400" y="-215.5700">ghc-prim</text><text x="245.8400" y="-392.35">indexed-traversable</text><text x="284.3" y="-247.7600">indexed-traversable-instances</text><text x="512.84" y="-595.06">kan-extensions</text><text x="632.69" y="-252.3400">strict</text><text x="434.42" y="-267.7700">template-haskell</text><text x="663.07" y="-365.63">th-abstraction</text><text x="123.75" y="-547.0100">transformers-base</text><text x="368.48" y="-634.82">transformers-compat</text><text x="766.28" y="-307.04">type-equality</text><text x="242.54" y="-322.7600">unordered-containers</text><text x="471.3500" y="-14.3">vector-stream</text></g></g></g><g class="hud"/></svg>