<svg xmlns="http://www.w3.org/2000/svg" xmlns:xlink="http://www.w3.org/1999/xlink" width="590" height="500" viewBox="-0.5901 -0.5 1.1802 1.0"><style>svg {
  color-scheme: light dark;
}
{
  .canvas g, .title g, .axisbar g, .ticktext g, .tickglyph g, .ticklines g, .legendContent g text {
    fill: rgb(5%, 5%, 5%);
  }
  .ticklines g, .tickglyph g, .legendBorder g {
    stroke: rgb(5%, 5%, 5%);
  }
  .legendBorder g {
    fill: rgb(94%, 94%, 94%);
  }
}
@media (prefers-color-scheme:dark) {
  .canvas g, .title g, .axisbar g, .ticktext g, .tickglyph g, .ticklines g, .legendContent g text {
    fill: rgb(94%, 94%, 94%);
  }
  .ticklines g, .tickglyph g, .legendBorder g {
    stroke: rgb(94%, 94%, 94%);
  }
  .legendBorder g {
    fill: rgb(5%, 5%, 5%);
  }
}
svg { font-family: system-ui,-apple-system,"Segoe UI",Roboto,"Helvetica Neue",Arial,"Noto Sans","Liberation Sans",sans-serif,"Apple Color Emoji","Segoe UI Emoji","Segoe UI Symbol","Noto Color Emoji";
}

ticktext { font-family: SFMono-Regular,Menlo,Monaco,Consolas,"Liberation Mono","Courier New",monospace;
}

</style><g class="chart"><g class="edges"><g stroke-width="0.0016" stroke="rgb(40%, 40%, 40%)" stroke-opacity="0.8" fill="rgb(0%, 0%, 0%)" fill-opacity="0"><path d="M 0.0662,0.4395 C 0.0271,0.4148 -0.0261,0.3770 -0.0633,0.3338 C -0.0940,0.2981 -0.0820,0.2755 -0.1134,0.2404 C -0.1344,0.2171 -0.1626,0.1968 -0.1873,0.1816"/></g><g stroke-width="0.0016" stroke="rgb(40%, 40%, 40%)" stroke-opacity="0.8" fill="rgb(0%, 0%, 0%)" fill-opacity="0"><path d="M 0.1395,0.4398 C 0.1864,0.3751 0.2973,0.2225 0.3443,0.1577"/></g><g stroke-width="0.0016" stroke="rgb(40%, 40%, 40%)" stroke-opacity="0.8" fill="rgb(0%, 0%, 0%)" fill-opacity="0"><path d="M 0.0541,0.4633 C 0.0004,0.4580 -0.0761,0.4506 -0.1299,0.4453"/></g><g stroke-width="0.0016" stroke="rgb(40%, 40%, 40%)" stroke-opacity="0.8" fill="rgb(0%, 0%, 0%)" fill-opacity="0"><path d="M 0.1583,0.4397 C 0.2156,0.3977 0.3196,0.3212 0.3770,0.2790"/></g><g stroke-width="0.0016" stroke="rgb(40%, 40%, 40%)" stroke-opacity="0.8" fill="rgb(0%, 0%, 0%)" fill-opacity="0"><path d="M 0.0983,0.4399 C 0.0778,0.4088 0.0457,0.3604 0.0252,0.3293"/></g><g stroke-width="0.0016" stroke="rgb(40%, 40%, 40%)" stroke-opacity="0.8" fill="rgb(0%, 0%, 0%)" fill-opacity="0"><path d="M 0.0694,0.4395 C 0.0103,0.4029 -0.0891,0.3414 -0.1482,0.3048"/></g><g stroke-width="0.0016" stroke="rgb(40%, 40%, 40%)" stroke-opacity="0.8" fill="rgb(0%, 0%, 0%)" fill-opacity="0"><path d="M 0.1238,0.4395 C 0.1328,0.3931 0.1500,0.3045 0.1590,0.2583"/></g><g stroke-width="0.0016" stroke="rgb(40%, 40%, 40%)" stroke-opacity="0.8" fill="rgb(0%, 0%, 0%)" fill-opacity="0"><path d="M 0.1447,-0.0258 C 0.1207,-0.0084 0.0890,0.0133 0.0590,0.0294 C -0.0238,0.0738 -0.1260,0.1124 -0.1874,0.1340"/></g><g stroke-width="0.0016" stroke="rgb(40%, 40%, 40%)" stroke-opacity="0.8" fill="rgb(0%, 0%, 0%)" fill-opacity="0"><path d="M 0.1818,-0.0256 C 0.1782,0.0290 0.1704,0.1442 0.1667,0.1988"/></g><g stroke-width="0.0016" stroke="rgb(40%, 40%, 40%)" stroke-opacity="0.8" fill="rgb(0%, 0%, 0%)" fill-opacity="0"><path d="M -0.1873,0.1625 C -0.1144,0.1762 0.0150,0.2006 0.0950,0.2156"/></g><g stroke-width="0.0016" stroke="rgb(40%, 40%, 40%)" stroke-opacity="0.8" fill="rgb(0%, 0%, 0%)" fill-opacity="0"><path d="M 0.4969,-0.0506 C 0.4854,-0.0047 0.4626,0.0857 0.4420,0.1623 C 0.4369,0.1813 0.4309,0.2026 0.4262,0.2193"/></g><g stroke-width="0.0016" stroke="rgb(40%, 40%, 40%)" stroke-opacity="0.8" fill="rgb(0%, 0%, 0%)" fill-opacity="0"><path d="M 0.4642,-0.0507 C 0.4201,-0.0173 0.3477,0.0393 0.2900,0.0934 C 0.2533,0.1278 0.2145,0.1709 0.1900,0.1991"/></g><g stroke-width="0.0016" stroke="rgb(40%, 40%, 40%)" stroke-opacity="0.8" fill="rgb(0%, 0%, 0%)" fill-opacity="0"><path d="M 0.3062,0.1578 C 0.2802,0.1708 0.2499,0.1860 0.2240,0.1990"/></g><g stroke-width="0.0016" stroke="rgb(40%, 40%, 40%)" stroke-opacity="0.8" fill="rgb(0%, 0%, 0%)" fill-opacity="0"><path d="M -0.1304,0.4237 C -0.0733,0.4076 0.0112,0.3785 0.0741,0.3338 C 0.1030,0.3134 0.1286,0.2817 0.1451,0.2585"/></g><g stroke-width="0.0016" stroke="rgb(40%, 40%, 40%)" stroke-opacity="0.8" fill="rgb(0%, 0%, 0%)" fill-opacity="0"><path d="M 0.0173,0.0249 C 0.0294,0.0747 0.0544,0.1776 0.0741,0.2650 C 0.0881,0.3270 0.1034,0.3998 0.1117,0.4396"/></g><g stroke-width="0.0016" stroke="rgb(40%, 40%, 40%)" stroke-opacity="0.8" fill="rgb(0%, 0%, 0%)" fill-opacity="0"><path d="M 0.0543,-0.0179 C 0.0760,-0.0242 0.1025,-0.0319 0.1258,-0.0386"/></g><g stroke-width="0.0016" stroke="rgb(40%, 40%, 40%)" stroke-opacity="0.8" fill="rgb(0%, 0%, 0%)" fill-opacity="0"><path d="M -0.0345,0.0227 C -0.0792,0.0507 -0.1479,0.0937 -0.1939,0.1224"/></g><g stroke-width="0.0016" stroke="rgb(40%, 40%, 40%)" stroke-opacity="0.8" fill="rgb(0%, 0%, 0%)" fill-opacity="0"><path d="M 0.0542,-0.0059 C 0.1019,-0.0074 0.1799,-0.0112 0.2465,-0.0211 C 0.3146,-0.0312 0.3915,-0.0499 0.4434,-0.0636"/></g><g stroke-width="0.0016" stroke="rgb(40%, 40%, 40%)" stroke-opacity="0.8" fill="rgb(0%, 0%, 0%)" fill-opacity="0"><path d="M 0.0543,0.0115 C 0.1145,0.0340 0.2228,0.0744 0.2946,0.1012"/></g><g stroke-width="0.0016" stroke="rgb(40%, 40%, 40%)" stroke-opacity="0.8" fill="rgb(0%, 0%, 0%)" fill-opacity="0"><path d="M 0.0002,0.0247 C -0.0187,0.0815 -0.0630,0.2083 -0.1134,0.3092 C -0.1313,0.3450 -0.1560,0.3838 -0.1732,0.4096"/></g><g stroke-width="0.0016" stroke="rgb(40%, 40%, 40%)" stroke-opacity="0.8" fill="rgb(0%, 0%, 0%)" fill-opacity="0"><path d="M -0.0194,-0.0349 C -0.0232,-0.0387 -0.0270,-0.0427 -0.0308,-0.0465"/></g><g stroke-width="0.0016" stroke="rgb(40%, 40%, 40%)" stroke-opacity="0.8" fill="rgb(0%, 0%, 0%)" fill-opacity="0"><path d="M 0.0544,0.0226 C 0.1328,0.0715 0.2950,0.1725 0.3734,0.2214"/></g><g stroke-width="0.0016" stroke="rgb(40%, 40%, 40%)" stroke-opacity="0.8" fill="rgb(0%, 0%, 0%)" fill-opacity="0"><path d="M -0.0347,-0.0040 C -0.1367,-0.0016 -0.3862,0.0043 -0.4895,0.0067"/></g><g stroke-width="0.0016" stroke="rgb(40%, 40%, 40%)" stroke-opacity="0.8" fill="rgb(0%, 0%, 0%)" fill-opacity="0"><path d="M 0.0095,0.0247 C 0.0086,0.0829 0.0067,0.2113 0.0059,0.2696"/></g><g stroke-width="0.0016" stroke="rgb(40%, 40%, 40%)" stroke-opacity="0.8" fill="rgb(0%, 0%, 0%)" fill-opacity="0"><path d="M 0.0112,-0.0347 C 0.0146,-0.1167 0.0243,-0.3457 0.0277,-0.4278"/></g><g stroke-width="0.0016" stroke="rgb(40%, 40%, 40%)" stroke-opacity="0.8" fill="rgb(0%, 0%, 0%)" fill-opacity="0"><path d="M -0.0122,0.0249 C -0.0520,0.0788 -0.1351,0.1914 -0.1748,0.2451"/></g><g stroke-width="0.0016" stroke="rgb(40%, 40%, 40%)" stroke-opacity="0.8" fill="rgb(0%, 0%, 0%)" fill-opacity="0"><path d="M 0.0295,0.0246 C 0.0593,0.0695 0.1156,0.1545 0.1453,0.1993"/></g><g stroke-width="0.0016" stroke="rgb(40%, 40%, 40%)" stroke-opacity="0.8" fill="rgb(0%, 0%, 0%)" fill-opacity="0"><path d="M -0.0346,-0.0148 C -0.0576,-0.0209 -0.0858,-0.0298 -0.1093,-0.0421 C -0.2099,-0.0943 -0.3109,-0.1835 -0.3601,-0.2297"/></g><g stroke-width="0.0016" stroke="rgb(40%, 40%, 40%)" stroke-opacity="0.8" fill="rgb(0%, 0%, 0%)" fill-opacity="0"><path d="M 0.0055,-0.0351 C 0.0020,-0.0565 -0.0037,-0.0858 -0.0112,-0.1109 C -0.0492,-0.2366 -0.1146,-0.3792 -0.1436,-0.4400"/></g><g stroke-width="0.0016" stroke="rgb(40%, 40%, 40%)" stroke-opacity="0.8" fill="rgb(0%, 0%, 0%)" fill-opacity="0"><path d="M 0.0240,-0.0345 C 0.0600,-0.1100 0.1551,-0.3096 0.1912,-0.3853"/></g><g stroke-width="0.0016" stroke="rgb(40%, 40%, 40%)" stroke-opacity="0.8" fill="rgb(0%, 0%, 0%)" fill-opacity="0"><path d="M -0.0161,-0.0727 C 0.0237,-0.0692 0.0822,-0.0642 0.1257,-0.0605"/></g><g stroke-width="0.0016" stroke="rgb(40%, 40%, 40%)" stroke-opacity="0.8" fill="rgb(0%, 0%, 0%)" fill-opacity="0"><path d="M -0.0840,-0.0466 C -0.1187,-0.0027 -0.1832,0.0785 -0.2179,0.1224"/></g><g stroke-width="0.0016" stroke="rgb(40%, 40%, 40%)" stroke-opacity="0.8" fill="rgb(0%, 0%, 0%)" fill-opacity="0"><path d="M -0.0159,-0.0650 C 0.0069,-0.0585 0.0348,-0.0497 0.0590,-0.0394 C 0.1543,0.0009 0.2589,0.0617 0.3180,0.0978"/></g><g stroke-width="0.0016" stroke="rgb(40%, 40%, 40%)" stroke-opacity="0.8" fill="rgb(0%, 0%, 0%)" fill-opacity="0"><path d="M -0.0602,-0.0465 C -0.0611,0.0198 -0.0680,0.1826 -0.1134,0.3092 C -0.1268,0.3464 -0.1517,0.3843 -0.1703,0.4095"/></g><g stroke-width="0.0016" stroke="rgb(40%, 40%, 40%)" stroke-opacity="0.8" fill="rgb(0%, 0%, 0%)" fill-opacity="0"><path d="M -0.0160,-0.0674 C 0.0073,-0.0615 0.0357,-0.0524 0.0590,-0.0394 C 0.1780,0.0270 0.1821,0.0790 0.2900,0.1623 C 0.3170,0.1830 0.3486,0.2046 0.3736,0.2210"/></g><g stroke-width="0.0016" stroke="rgb(40%, 40%, 40%)" stroke-opacity="0.8" fill="rgb(0%, 0%, 0%)" fill-opacity="0"><path d="M -0.0551,-0.0470 C -0.0429,0.0231 -0.0121,0.1991 0.0002,0.2696"/></g><g stroke-width="0.0016" stroke="rgb(40%, 40%, 40%)" stroke-opacity="0.8" fill="rgb(0%, 0%, 0%)" fill-opacity="0"><path d="M -0.0533,-0.1064 C -0.0366,-0.1776 0.0054,-0.3568 0.0220,-0.4279"/></g><g stroke-width="0.0016" stroke="rgb(40%, 40%, 40%)" stroke-opacity="0.8" fill="rgb(0%, 0%, 0%)" fill-opacity="0"><path d="M -0.0719,-0.0465 C -0.0977,0.0198 -0.1594,0.1786 -0.1852,0.2449"/></g><g stroke-width="0.0016" stroke="rgb(40%, 40%, 40%)" stroke-opacity="0.8" fill="rgb(0%, 0%, 0%)" fill-opacity="0"><path d="M -0.0590,-0.0466 C -0.0570,-0.0244 -0.0519,0.0058 -0.0391,0.0294 C 0.0001,0.1016 0.0742,0.1640 0.1214,0.1989"/></g><g stroke-width="0.0016" stroke="rgb(40%, 40%, 40%)" stroke-opacity="0.8" fill="rgb(0%, 0%, 0%)" fill-opacity="0"><path d="M -0.1048,-0.1012 C -0.1681,-0.1362 -0.2832,-0.2000 -0.3464,-0.2350"/></g><g stroke-width="0.0016" stroke="rgb(40%, 40%, 40%)" stroke-opacity="0.8" fill="rgb(0%, 0%, 0%)" fill-opacity="0"><path d="M -0.0371,-0.1059 C 0.0131,-0.1700 0.1318,-0.3213 0.1822,-0.3855"/></g><g stroke-width="0.0016" stroke="rgb(40%, 40%, 40%)" stroke-opacity="0.8" fill="rgb(0%, 0%, 0%)" fill-opacity="0"><path d="M 0.3736,0.2455 C 0.3353,0.2424 0.2790,0.2379 0.2345,0.2343"/></g><g stroke-width="0.0016" stroke="rgb(40%, 40%, 40%)" stroke-opacity="0.8" fill="rgb(0%, 0%, 0%)" fill-opacity="0"><path d="M 0.0203,0.2698 C 0.0539,0.2030 0.1352,0.0413 0.1689,-0.0257"/></g><g stroke-width="0.0016" stroke="rgb(40%, 40%, 40%)" stroke-opacity="0.8" fill="rgb(0%, 0%, 0%)" fill-opacity="0"><path d="M -0.0446,0.2697 C -0.0873,0.2442 -0.1485,0.2078 -0.1913,0.1823"/></g><g stroke-width="0.0016" stroke="rgb(40%, 40%, 40%)" stroke-opacity="0.8" fill="rgb(0%, 0%, 0%)" fill-opacity="0"><path d="M 0.0221,0.2695 C 0.0370,0.2455 0.0609,0.2130 0.0905,0.1943 C 0.1527,0.1550 0.2362,0.1389 0.2949,0.1324"/></g><g stroke-width="0.0016" stroke="rgb(40%, 40%, 40%)" stroke-opacity="0.8" fill="rgb(0%, 0%, 0%)" fill-opacity="0"><path d="M -0.0373,0.3294 C -0.0708,0.3530 -0.1174,0.3857 -0.1509,0.4092"/></g><g stroke-width="0.0016" stroke="rgb(40%, 40%, 40%)" stroke-opacity="0.8" fill="rgb(0%, 0%, 0%)" fill-opacity="0"><path d="M 0.0693,0.2711 C 0.0785,0.2670 0.0879,0.2628 0.0972,0.2587"/></g><g stroke-width="0.0016" stroke="rgb(40%, 40%, 40%)" stroke-opacity="0.8" fill="rgb(0%, 0%, 0%)" fill-opacity="0"><path d="M -0.1623,0.2449 C -0.0899,0.1820 0.0776,0.0367 0.1497,-0.0259"/></g><g stroke-width="0.0016" stroke="rgb(40%, 40%, 40%)" stroke-opacity="0.8" fill="rgb(0%, 0%, 0%)" fill-opacity="0"><path d="M -0.1179,0.2648 C -0.0543,0.2567 0.0342,0.2454 0.0952,0.2376"/></g><g stroke-width="0.0016" stroke="rgb(40%, 40%, 40%)" stroke-opacity="0.8" fill="rgb(0%, 0%, 0%)" fill-opacity="0"><path d="M -0.1024,-0.4451 C -0.0806,-0.4365 -0.0552,-0.4279 -0.0312,-0.4232 C 0.0107,-0.4150 0.0577,-0.4121 0.0986,-0.4116"/></g></g><g class="shapes"><g stroke-width="0.0016" stroke="rgb(40%, 40%, 40%)" stroke-opacity="0.8" fill="rgb(50%, 50%, 50%)" fill-opacity="0.2"><rect width="0.1270" height="0.0584" x="0.0544" y="0.4403"/></g><g stroke-width="0.0016" stroke="rgb(40%, 40%, 40%)" stroke-opacity="0.8" fill="rgb(50%, 50%, 50%)" fill-opacity="0.2"><rect width="0.1149" height="0.0584" x="0.1264" y="-0.0847"/></g><g stroke-width="0.0016" stroke="rgb(40%, 40%, 40%)" stroke-opacity="0.8" fill="rgb(50%, 50%, 50%)" fill-opacity="0.2"><rect width="0.1076" height="0.0584" x="-0.2954" y="0.1231"/></g><g stroke-width="0.0016" stroke="rgb(40%, 40%, 40%)" stroke-opacity="0.8" fill="rgb(50%, 50%, 50%)" fill-opacity="0.2"><rect width="0.1209" height="0.0584" x="0.4439" y="-0.1098"/></g><g stroke-width="0.0016" stroke="rgb(40%, 40%, 40%)" stroke-opacity="0.8" fill="rgb(50%, 50%, 50%)" fill-opacity="0.2"><rect width="0.1416" height="0.0584" x="0.2952" y="0.0986"/></g><g stroke-width="0.0016" stroke="rgb(40%, 40%, 40%)" stroke-opacity="0.8" fill="rgb(50%, 50%, 50%)" fill-opacity="0.2"><rect width="0.1258" height="0.0584" x="-0.2565" y="0.4099"/></g><g stroke-width="0.0016" stroke="rgb(40%, 40%, 40%)" stroke-opacity="0.8" fill="rgb(50%, 50%, 50%)" fill-opacity="0.2"><rect width="0.0877" height="0.0584" x="-0.0339" y="-0.0342"/></g><g stroke-width="0.0016" stroke="rgb(40%, 40%, 40%)" stroke-opacity="0.8" fill="rgb(50%, 50%, 50%)" fill-opacity="0.2"><rect width="0.0877" height="0.0584" x="-0.1041" y="-0.1057"/></g><g stroke-width="0.0016" stroke="rgb(40%, 40%, 40%)" stroke-opacity="0.8" fill="rgb(50%, 50%, 50%)" fill-opacity="0.2"><rect width="0.0877" height="0.0584" x="0.3739" y="0.2198"/></g><g stroke-width="0.0016" stroke="rgb(40%, 40%, 40%)" stroke-opacity="0.8" fill="rgb(50%, 50%, 50%)" fill-opacity="0.2"><rect width="0.0917" height="0.0584" x="-0.5814" y="-0.0214"/></g><g stroke-width="0.0016" stroke="rgb(40%, 40%, 40%)" stroke-opacity="0.8" fill="rgb(50%, 50%, 50%)" fill-opacity="0.2"><rect width="0.1270" height="0.0584" x="-0.0581" y="0.2702"/></g><g stroke-width="0.0016" stroke="rgb(40%, 40%, 40%)" stroke-opacity="0.8" fill="rgb(50%, 50%, 50%)" fill-opacity="0.2"><rect width="0.1100" height="0.0584" x="-0.0260" y="-0.4869"/></g><g stroke-width="0.0016" stroke="rgb(40%, 40%, 40%)" stroke-opacity="0.8" fill="rgb(50%, 50%, 50%)" fill-opacity="0.2"><rect width="0.1563" height="0.0584" x="-0.2749" y="0.2456"/></g><g stroke-width="0.0016" stroke="rgb(40%, 40%, 40%)" stroke-opacity="0.8" fill="rgb(50%, 50%, 50%)" fill-opacity="0.2"><rect width="0.1380" height="0.0584" x="0.0957" y="0.1995"/></g><g stroke-width="0.0016" stroke="rgb(40%, 40%, 40%)" stroke-opacity="0.8" fill="rgb(50%, 50%, 50%)" fill-opacity="0.2"><rect width="0.0877" height="0.0584" x="-0.4346" y="-0.2888"/></g><g stroke-width="0.0016" stroke="rgb(40%, 40%, 40%)" stroke-opacity="0.8" fill="rgb(50%, 50%, 50%)" fill-opacity="0.2"><rect width="0.1112" height="0.0584" x="-0.2138" y="-0.4992"/></g><g stroke-width="0.0016" stroke="rgb(40%, 40%, 40%)" stroke-opacity="0.8" fill="rgb(50%, 50%, 50%)" fill-opacity="0.2"><rect width="0.2123" height="0.0584" x="0.0993" y="-0.4443"/></g></g><g class="labels"><g stroke-width="0.0" stroke="none" fill="rgb(40%, 40%, 40%)" fill-opacity="0.8" font-size="0.0260" text-anchor="middle"><text x="0.1179" y="0.4792">adjunctions</text><text x="0.1839" y="-0.0457">bifunctors</text><text x="-0.2417" y="0.1621">comonad</text><text x="0.5044" y="-0.0708">constraints</text><text x="0.3660" y="0.1376">contravariant</text><text x="-0.1936" y="0.4489">distributive</text><text x="0.0100" y="0.0047">folds</text><text x="-0.0603" y="-0.0667">lens</text><text x="0.4177" y="0.2587">mtl</text><text x="-0.5355" y="0.0175">pointed</text><text x="0.0054" y="0.3092">profunctors</text><text x="0.0290" y="-0.4479">reflection</text><text x="-0.1968" y="0.2846">semigroupoids</text><text x="0.1647" y="0.2385">transformers</text><text x="-0.3908" y="-0.2499">vector</text><text x="-0.1582" y="-0.4602">data-reify</text><text x="0.2054" y="-0.4054">unordered-containers</text></g></g></g><g class="hud"></g></svg>