<?xml version="1.0" encoding="UTF-8" standalone="no"?>
<!DOCTYPE svg PUBLIC "-//W3C//DTD SVG 1.1//EN"
 "http://www.w3.org/Graphics/SVG/1.1/DTD/svg11.dtd">
<!-- Generated by graphviz version 9.0.0 (20230911.1827)
 -->
<!-- Pages: 1 -->
<svg width="324pt" height="360pt"
 viewBox="0.00 0.00 323.65 360.00" xmlns="http://www.w3.org/2000/svg" xmlns:xlink="http://www.w3.org/1999/xlink">
<g id="graph0" class="graph" transform="scale(1.08434 1.08434) rotate(0) translate(4 328)">
<polygon fill="white" stroke="none" points="-4,4 -4,-328 294.48,-328 294.48,4 -4,4"/>
<!-- text -->
<g id="node1" class="node">
<title>text</title>
<polygon fill="none" stroke="black" points="158.48,-36 104.48,-36 104.48,0 158.48,0 158.48,-36"/>
<text text-anchor="middle" x="131.48" y="-12.95" font-family="Times,serif" font-size="14.00">text</text>
</g>
<!-- template&#45;haskell -->
<g id="node2" class="node">
<title>template&#45;haskell</title>
<polygon fill="none" stroke="black" points="119.48,-252 13.48,-252 13.48,-216 119.48,-216 119.48,-252"/>
<text text-anchor="middle" x="66.48" y="-228.95" font-family="Times,serif" font-size="14.00">template&#45;haskell</text>
</g>
<!-- template&#45;haskell&#45;&gt;text -->
<g id="edge1" class="edge">
<title>template&#45;haskell&#45;&gt;text</title>
<path fill="none" stroke="black" d="M71.69,-215.85C83.29,-177.66 111.26,-85.57 124.41,-42.26"/>
<polygon fill="black" stroke="black" points="126.02,-42.97 125.8,-37.68 122.68,-41.96 126.02,-42.97"/>
</g>
<!-- bytestring -->
<g id="node5" class="node">
<title>bytestring</title>
<polygon fill="none" stroke="black" points="182.48,-180 112.48,-180 112.48,-144 182.48,-144 182.48,-180"/>
<text text-anchor="middle" x="147.48" y="-156.95" font-family="Times,serif" font-size="14.00">bytestring</text>
</g>
<!-- template&#45;haskell&#45;&gt;bytestring -->
<g id="edge2" class="edge">
<title>template&#45;haskell&#45;&gt;bytestring</title>
<path fill="none" stroke="black" d="M86.5,-215.7C97.4,-206.27 111,-194.53 122.58,-184.52"/>
<polygon fill="black" stroke="black" points="123.62,-185.93 126.26,-181.34 121.33,-183.28 123.62,-185.93"/>
</g>
<!-- ghc&#45;prim -->
<g id="node3" class="node">
<title>ghc&#45;prim</title>
<polygon fill="none" stroke="black" points="99.6,-324 33.35,-324 33.35,-288 99.6,-288 99.6,-324"/>
<text text-anchor="middle" x="66.48" y="-300.95" font-family="Times,serif" font-size="14.00">ghc&#45;prim</text>
</g>
<!-- ghc&#45;prim&#45;&gt;text -->
<g id="edge3" class="edge">
<title>ghc&#45;prim&#45;&gt;text</title>
<path fill="none" stroke="black" d="M36.65,-287.7C24.27,-278.78 11.23,-266.66 4.48,-252 -2.22,-237.47 -0.04,-231.35 4.48,-216 25.34,-145.12 80.5,-75.69 110.81,-41.3"/>
<polygon fill="black" stroke="black" points="112.07,-42.51 114.08,-37.62 109.45,-40.19 112.07,-42.51"/>
</g>
<!-- ghc&#45;prim&#45;&gt;template&#45;haskell -->
<g id="edge4" class="edge">
<title>ghc&#45;prim&#45;&gt;template&#45;haskell</title>
<path fill="none" stroke="black" d="M66.48,-287.7C66.48,-278.88 66.48,-268.03 66.48,-258.47"/>
<polygon fill="black" stroke="black" points="68.23,-258.62 66.48,-253.62 64.73,-258.62 68.23,-258.62"/>
</g>
<!-- ghc&#45;prim&#45;&gt;bytestring -->
<g id="edge5" class="edge">
<title>ghc&#45;prim&#45;&gt;bytestring</title>
<path fill="none" stroke="black" d="M93.97,-287.68C106.32,-278.53 120,-266.24 128.48,-252 140.46,-231.87 144.93,-205.21 146.58,-186.33"/>
<polygon fill="black" stroke="black" points="148.29,-186.88 146.92,-181.76 144.8,-186.62 148.29,-186.88"/>
</g>
<!-- deepseq -->
<g id="node4" class="node">
<title>deepseq</title>
<polygon fill="none" stroke="black" points="235.23,-252 175.73,-252 175.73,-216 235.23,-216 235.23,-252"/>
<text text-anchor="middle" x="205.48" y="-228.95" font-family="Times,serif" font-size="14.00">deepseq</text>
</g>
<!-- deepseq&#45;&gt;text -->
<g id="edge6" class="edge">
<title>deepseq&#45;&gt;text</title>
<path fill="none" stroke="black" d="M208.64,-215.87C213.43,-185.14 219.6,-119.43 195.48,-72 188.44,-58.16 176.01,-46.59 163.96,-37.83"/>
<polygon fill="black" stroke="black" points="165.18,-36.54 160.08,-35.11 163.17,-39.41 165.18,-36.54"/>
</g>
<!-- deepseq&#45;&gt;bytestring -->
<g id="edge7" class="edge">
<title>deepseq&#45;&gt;bytestring</title>
<path fill="none" stroke="black" d="M191.14,-215.7C183.48,-206.46 173.98,-194.98 165.79,-185.11"/>
<polygon fill="black" stroke="black" points="167.15,-184 162.62,-181.27 164.46,-186.24 167.15,-184"/>
</g>
<!-- bytestring&#45;&gt;text -->
<g id="edge8" class="edge">
<title>bytestring&#45;&gt;text</title>
<path fill="none" stroke="black" d="M137.27,-143.5C132.02,-133.47 126.16,-120.44 123.48,-108 118.75,-86.12 121.9,-60.63 125.54,-42.55"/>
<polygon fill="black" stroke="black" points="127.24,-42.99 126.57,-37.73 123.81,-42.25 127.24,-42.99"/>
</g>
<!-- binary -->
<g id="node6" class="node">
<title>binary</title>
<polygon fill="none" stroke="black" points="186.48,-108 132.48,-108 132.48,-72 186.48,-72 186.48,-108"/>
<text text-anchor="middle" x="159.48" y="-84.95" font-family="Times,serif" font-size="14.00">binary</text>
</g>
<!-- bytestring&#45;&gt;binary -->
<g id="edge9" class="edge">
<title>bytestring&#45;&gt;binary</title>
<path fill="none" stroke="black" d="M150.44,-143.7C151.95,-134.88 153.81,-124.03 155.45,-114.47"/>
<polygon fill="black" stroke="black" points="157.17,-114.82 156.29,-109.6 153.72,-114.23 157.17,-114.82"/>
</g>
<!-- binary&#45;&gt;text -->
<g id="edge10" class="edge">
<title>binary&#45;&gt;text</title>
<path fill="none" stroke="black" d="M152.56,-71.7C148.96,-62.71 144.52,-51.61 140.65,-41.92"/>
<polygon fill="black" stroke="black" points="142.36,-41.5 138.88,-37.51 139.11,-42.8 142.36,-41.5"/>
</g>
<!-- array -->
<g id="node7" class="node">
<title>array</title>
<polygon fill="none" stroke="black" points="290.48,-324 236.48,-324 236.48,-288 290.48,-288 290.48,-324"/>
<text text-anchor="middle" x="263.48" y="-300.95" font-family="Times,serif" font-size="14.00">array</text>
</g>
<!-- array&#45;&gt;text -->
<g id="edge11" class="edge">
<title>array&#45;&gt;text</title>
<path fill="none" stroke="black" d="M264.81,-287.66C267.08,-245.83 267.2,-137.98 215.48,-72 202.19,-55.05 181.88,-42.03 164.56,-33.13"/>
<polygon fill="black" stroke="black" points="165.42,-31.61 160.17,-30.95 163.86,-34.74 165.42,-31.61"/>
</g>
<!-- array&#45;&gt;deepseq -->
<g id="edge12" class="edge">
<title>array&#45;&gt;deepseq</title>
<path fill="none" stroke="black" d="M249.14,-287.7C241.48,-278.46 231.98,-266.98 223.79,-257.11"/>
<polygon fill="black" stroke="black" points="225.15,-256 220.62,-253.27 222.46,-258.24 225.15,-256"/>
</g>
<!-- array&#45;&gt;binary -->
<g id="edge13" class="edge">
<title>array&#45;&gt;binary</title>
<path fill="none" stroke="black" d="M261.78,-287.67C259.53,-269.29 254.6,-239.68 244.48,-216 227.73,-176.8 198.01,-137.01 178.53,-113.17"/>
<polygon fill="black" stroke="black" points="180.03,-112.24 175.49,-109.5 177.33,-114.47 180.03,-112.24"/>
</g>
</g>
</svg>
