<svg height="500" viewBox="-0.5 -451.58 420.4396 452.08" width="465" xmlns="http://www.w3.org/2000/svg" xmlns:xlink="http://www.w3.org/1999/xlink"><style>svg {
  color-scheme: light dark;
}
{
  .canvas g, .title g, .axisbar g, .ticktext g, .tickglyph g, .ticklines g, .legendContent g text {
    fill: rgb(5%, 5%, 5%);
  }
  .ticklines g, .tickglyph g, .legendBorder g {
    stroke: rgb(5%, 5%, 5%);
  }
  .legendBorder g {
    fill: rgb(94%, 94%, 94%);
  }
}
@media (prefers-color-scheme:dark) {
  .canvas g, .title g, .axisbar g, .ticktext g, .tickglyph g, .ticklines g, .legendContent g text {
    fill: rgb(94%, 94%, 94%);
  }
  .ticklines g, .tickglyph g, .legendBorder g {
    stroke: rgb(94%, 94%, 94%);
  }
  .legendBorder g {
    fill: rgb(5%, 5%, 5%);
  }
}</style><g class="chart"><g class="edges"><g fill="rgb(0%, 0%, 0%)" fill-opacity="0" stroke="rgb(-51%, 30%, 37%)" stroke-opacity="1.0" stroke-width="1.0"><path d="M 43.339,-57.6620 C 73.19,-91.045 136.21,-161.5200 166.07,-194.92"/></g><g fill="rgb(0%, 0%, 0%)" fill-opacity="0" stroke="rgb(-51%, 30%, 37%)" stroke-opacity="1.0" stroke-width="1.0"><path d="M 173.9,-231.57 C 154.7,-272.96 108.22,-373.13 88.972,-414.6100"/></g><g fill="rgb(0%, 0%, 0%)" fill-opacity="0" stroke="rgb(-51%, 30%, 37%)" stroke-opacity="1.0" stroke-width="1.0"><path d="M 184.5,-231.6200 C 187.61,-259.09 193.42,-310.52 196.5200,-337.95"/></g><g fill="rgb(0%, 0%, 0%)" fill-opacity="0" stroke="rgb(-51%, 30%, 37%)" stroke-opacity="1.0" stroke-width="1.0"><path d="M 76.698,-47.4300 C 69.427,-46.253 61.577,-44.9830 54.31,-43.8080"/></g><g fill="rgb(0%, 0%, 0%)" fill-opacity="0" stroke="rgb(-51%, 30%, 37%)" stroke-opacity="1.0" stroke-width="1.0"><path d="M 112.93,-70.057 C 127.9700,-101.04 158.4,-163.72 173.5,-194.8300"/></g><g fill="rgb(0%, 0%, 0%)" fill-opacity="0" stroke="rgb(-51%, 30%, 37%)" stroke-opacity="1.0" stroke-width="1.0"><path d="M 101.21,-70.3350 C 94.688,-112.06 78.881,-213.1900 72.3910,-254.7200"/></g><g fill="rgb(0%, 0%, 0%)" fill-opacity="0" stroke="rgb(-51%, 30%, 37%)" stroke-opacity="1.0" stroke-width="1.0"><path d="M 131.48,-45.652 C 155.48,-40.2100 190.54,-32.259 216.91,-26.278"/></g><g fill="rgb(0%, 0%, 0%)" fill-opacity="0" stroke="rgb(-51%, 30%, 37%)" stroke-opacity="1.0" stroke-width="1.0"><path d="M 104.33,-254.5600 C 120.65,-245.92 139.83,-235.7600 155.09,-227.6800"/></g><g fill="rgb(0%, 0%, 0%)" fill-opacity="0" stroke="rgb(-51%, 30%, 37%)" stroke-opacity="1.0" stroke-width="1.0"><path d="M 81.197,-254.6800 C 102.84,-220.7 148.9800,-148.2500 170.71,-114.15"/></g><g fill="rgb(0%, 0%, 0%)" fill-opacity="0" stroke="rgb(-51%, 30%, 37%)" stroke-opacity="1.0" stroke-width="1.0"><path d="M 98.177,-291.4800 C 119.56,-305.2800 148.66,-324.06 170.03,-337.8600"/></g><g fill="rgb(0%, 0%, 0%)" fill-opacity="0" stroke="rgb(-51%, 30%, 37%)" stroke-opacity="1.0" stroke-width="1.0"><path d="M 105.08,-267.41 C 136.13,-262.54 181.67,-255.3900 217.1800,-249.82"/></g><g fill="rgb(0%, 0%, 0%)" fill-opacity="0" stroke="rgb(-51%, 30%, 37%)" stroke-opacity="1.0" stroke-width="1.0"><path d="M 217.1900,-19.347 C 180.84,-20.981 123.3300,-24.341 73.897,-30.663 C 67.489,-31.482 60.633,-32.6120 54.196,-33.788"/></g><g fill="rgb(0%, 0%, 0%)" fill-opacity="0" stroke="rgb(-51%, 30%, 37%)" stroke-opacity="1.0" stroke-width="1.0"><path d="M 246.73,-36.364 C 233.2,-73.5690 202.69,-157.46 189.14,-194.75"/></g><g fill="rgb(0%, 0%, 0%)" fill-opacity="0" stroke="rgb(-51%, 30%, 37%)" stroke-opacity="1.0" stroke-width="1.0"><path d="M 236.6000,-36.4090 C 225.29,-48.7910 210.44,-65.0470 199.16,-77.4010"/></g><g fill="rgb(0%, 0%, 0%)" fill-opacity="0" stroke="rgb(-51%, 30%, 37%)" stroke-opacity="1.0" stroke-width="1.0"><path d="M 254.8400,-36.28 C 258.14,-78.2720 266.2100,-181.23 269.5,-223.1600"/></g><g fill="rgb(0%, 0%, 0%)" fill-opacity="0" stroke="rgb(-51%, 30%, 37%)" stroke-opacity="1.0" stroke-width="1.0"><path d="M 152.4200,-92.824 C 130.03,-89.8980 99.104,-84.14 73.897,-73.063 C 65.087,-69.191 56.29,-63.4880 48.735,-57.8720"/></g><g fill="rgb(0%, 0%, 0%)" fill-opacity="0" stroke="rgb(-51%, 30%, 37%)" stroke-opacity="1.0" stroke-width="1.0"><path d="M 182.46,-114.0400 C 182.46,-136.12 182.44,-172.9500 182.43,-194.9700"/></g><g fill="rgb(0%, 0%, 0%)" fill-opacity="0" stroke="rgb(-51%, 30%, 37%)" stroke-opacity="1.0" stroke-width="1.0"><path d="M 340.33,-184.6000 C 305.31,-190.94 244.95,-201.8800 209.87,-208.2300"/></g><g fill="rgb(0%, 0%, 0%)" fill-opacity="0" stroke="rgb(-51%, 30%, 37%)" stroke-opacity="1.0" stroke-width="1.0"><path d="M 340.34,-167.2600 C 306.23,-151.79 248.08,-125.4300 212.6800,-109.3700"/></g><g fill="rgb(0%, 0%, 0%)" fill-opacity="0" stroke="rgb(-51%, 30%, 37%)" stroke-opacity="1.0" stroke-width="1.0"><path d="M 361.8,-197.9400 C 355.43,-215.8100 343.94,-243.0700 327.63,-262.58 C 300.82,-294.6600 260.74,-321.5 232.38,-338.1200"/></g><g fill="rgb(0%, 0%, 0%)" fill-opacity="0" stroke="rgb(-51%, 30%, 37%)" stroke-opacity="1.0" stroke-width="1.0"><path d="M 41.086,-171.4100 C 37.988,-142.37 32.011,-86.3590 28.935,-57.521"/></g><g fill="rgb(0%, 0%, 0%)" fill-opacity="0" stroke="rgb(-51%, 30%, 37%)" stroke-opacity="1.0" stroke-width="1.0"><path d="M 70.257,-194.4200 C 94.815,-198.5300 130.75,-204.5500 155.29,-208.6600"/></g><g fill="rgb(0%, 0%, 0%)" fill-opacity="0" stroke="rgb(-51%, 30%, 37%)" stroke-opacity="1.0" stroke-width="1.0"><path d="M 51.16,-171.5400 C 62.836,-145.1400 84.263,-96.7 95.957,-70.264"/></g><g fill="rgb(0%, 0%, 0%)" fill-opacity="0" stroke="rgb(-51%, 30%, 37%)" stroke-opacity="1.0" stroke-width="1.0"><path d="M 48.932,-208.3100 C 53.32,-222.0900 59.291,-240.8300 63.675,-254.5900"/></g><g fill="rgb(0%, 0%, 0%)" fill-opacity="0" stroke="rgb(-51%, 30%, 37%)" stroke-opacity="1.0" stroke-width="1.0"><path d="M 70.267,-171.48 C 94.832,-154.88 130.78,-130.6000 155.33,-114.01"/></g><g fill="rgb(0%, 0%, 0%)" fill-opacity="0" stroke="rgb(-51%, 30%, 37%)" stroke-opacity="1.0" stroke-width="1.0"><path d="M 63.518,-208.3400 C 76.615,-220.4000 93.797,-236.65 108.24,-251.79 C 136.05,-280.94 166.27,-316.84 183.76,-338.07"/></g><g fill="rgb(0%, 0%, 0%)" fill-opacity="0" stroke="rgb(-51%, 30%, 37%)" stroke-opacity="1.0" stroke-width="1.0"><path d="M 70.503,-204.0200 C 92.099,-214.4200 123.2800,-227.8400 152.2200,-234.4000 C 173.16,-239.15 196.68,-241.2000 217.23,-241.95"/></g><g fill="rgb(0%, 0%, 0%)" fill-opacity="0" stroke="rgb(-51%, 30%, 37%)" stroke-opacity="1.0" stroke-width="1.0"><path d="M 108.71,-414.6900 C 127.42,-402.5300 151.85,-386.66 170.51,-374.5400"/></g><g fill="rgb(0%, 0%, 0%)" fill-opacity="0" stroke="rgb(-51%, 30%, 37%)" stroke-opacity="1.0" stroke-width="1.0"><path d="M 339.17,-331.6900 C 303.31,-318.54 250.9900,-295.4800 214.2300,-262.58 C 204.5100,-253.8800 196.56,-241.5300 191.0300,-231.36"/></g><g fill="rgb(0%, 0%, 0%)" fill-opacity="0" stroke="rgb(-51%, 30%, 37%)" stroke-opacity="1.0" stroke-width="1.0"><path d="M 217.15,-224.26 C 214.6900,-223.4800 212.27,-222.71 209.9200,-221.9600"/></g><g fill="rgb(0%, 0%, 0%)" fill-opacity="0" stroke="rgb(-51%, 30%, 37%)" stroke-opacity="1.0" stroke-width="1.0"><path d="M 299.69,-223.02 C 312.5,-214.85 327.52,-205.2700 340.18,-197.1900"/></g><g fill="rgb(0%, 0%, 0%)" fill-opacity="0" stroke="rgb(-51%, 30%, 37%)" stroke-opacity="1.0" stroke-width="1.0"><path d="M 290.33,-259.86 C 310.08,-278.6800 340.52,-307.69 360.21,-326.45"/></g><g fill="rgb(0%, 0%, 0%)" fill-opacity="0" stroke="rgb(-51%, 30%, 37%)" stroke-opacity="1.0" stroke-width="1.0"><path d="M 259.31,-259.84 C 245.81,-281.29 223.67,-316.45 210.1800,-337.88"/></g></g><g class="shapes"><g fill="rgb(2%, 73%, 80%)" fill-opacity="0.2" stroke="rgb(-51%, 30%, 37%)" stroke-opacity="1.0" stroke-width="1.0"><rect height="36.0" width="54.0" x="0" y="-57.389"/></g><g fill="rgb(2%, 73%, 80%)" fill-opacity="0.2" stroke="rgb(-51%, 30%, 37%)" stroke-opacity="1.0" stroke-width="1.0"><rect height="36.0" width="54.0" x="155.42" y="-231.2"/></g><g fill="rgb(2%, 73%, 80%)" fill-opacity="0.2" stroke="rgb(-51%, 30%, 37%)" stroke-opacity="1.0" stroke-width="1.0"><rect height="36.0" width="54.0" x="77.1" y="-69.863"/></g><g fill="rgb(2%, 73%, 80%)" fill-opacity="0.2" stroke="rgb(-51%, 30%, 37%)" stroke-opacity="1.0" stroke-width="1.0"><rect height="36.0" width="70.9999" x="34.0360" y="-290.99"/></g><g fill="rgb(2%, 73%, 80%)" fill-opacity="0.2" stroke="rgb(-51%, 30%, 37%)" stroke-opacity="1.0" stroke-width="1.0"><rect height="36.0" width="36.0000" x="235.41" y="-36.0"/></g><g fill="rgb(2%, 73%, 80%)" fill-opacity="0.2" stroke="rgb(-51%, 30%, 37%)" stroke-opacity="1.0" stroke-width="1.0"><rect height="36.0" width="59.9998" x="152.4701" y="-113.678"/></g><g fill="rgb(2%, 73%, 80%)" fill-opacity="0.2" stroke="rgb(-51%, 30%, 37%)" stroke-opacity="1.0" stroke-width="1.0"><rect height="36.0" width="54.0" x="340.66" y="-197.65"/></g><g fill="rgb(2%, 73%, 80%)" fill-opacity="0.2" stroke="rgb(-51%, 30%, 37%)" stroke-opacity="1.0" stroke-width="1.0"><rect height="36.0" width="54.0000" x="16.055" y="-207.8600"/></g><g fill="rgb(2%, 73%, 80%)" fill-opacity="0.2" stroke="rgb(-51%, 30%, 37%)" stroke-opacity="1.0" stroke-width="1.0"><rect height="36.0" width="83.0016" x="38.9012" y="-451.08"/></g><g fill="rgb(2%, 73%, 80%)" fill-opacity="0.2" stroke="rgb(-51%, 30%, 37%)" stroke-opacity="1.0" stroke-width="1.0"><rect height="36.0" width="79.9992" x="339.4404" y="-362.77"/></g><g fill="rgb(2%, 73%, 80%)" fill-opacity="0.2" stroke="rgb(-51%, 30%, 37%)" stroke-opacity="1.0" stroke-width="1.0"><rect height="36.0" width="67.0003" x="165.0898" y="-374.2900"/></g><g fill="rgb(2%, 73%, 80%)" fill-opacity="0.2" stroke="rgb(-51%, 30%, 37%)" stroke-opacity="1.0" stroke-width="1.0"><rect height="36.0" width="106.9992" x="217.4304" y="-259.38"/></g></g><g class="labels"><g fill="rgb(-51%, 30%, 37%)" fill-opacity="1.0" font-size="14.0" stroke="none" stroke-width="0.0" text-anchor="middle"><text x="27.0" y="-35.689">array</text><text x="182.42" y="-209.5">base</text><text x="104.1" y="-48.163">binary</text><text x="69.536" y="-269.29">bytestring</text><text x="253.41" y="-14.3">containers</text><text x="182.47" y="-91.978">deepseq</text><text x="367.66" y="-175.9500">pretty</text><text x="43.055" y="-186.1600">text</text><text x="80.4020" y="-429.38">ghc-bignum</text><text x="379.44" y="-341.07">ghc-boot-th</text><text x="198.59" y="-352.5900">ghc-prim</text><text x="270.93" y="-237.6800">template-haskell</text></g></g></g><g class="hud"/></svg>